<svg width="14" height="14" viewBox="0 0 14 14" fill="none" xmlns="http://www.w3.org/2000/svg">
<path d="M0.5 13.4V2.1C0.5 2.04477 0.544772 2 0.6 2H13.4C13.4552 2 13.5 2.04477 13.5 2.1V13.4C13.5 13.4552 13.4552 13.5 13.4 13.5H0.6C0.544772 13.5 0.5 13.4552 0.5 13.4Z" stroke="black"/>
<path d="M3.5 5C3.22386 5 3 5.22386 3 5.5C3 5.77614 3.22386 6 3.5 6C3.77614 6 4 5.77614 4 5.5C4 5.22386 3.77614 5 3.5 5Z" fill="black"/>
<path d="M3.5 5C3.22386 5 3 5.22386 3 5.5C3 5.77614 3.22386 6 3.5 6C3.77614 6 4 5.77614 4 5.5C4 5.22386 3.77614 5 3.5 5Z" fill="black"/>
<path d="M3.5 5C3.22386 5 3 5.22386 3 5.5C3 5.77614 3.22386 6 3.5 6C3.77614 6 4 5.77614 4 5.5C4 5.22386 3.77614 5 3.5 5Z" fill="black"/>
<path d="M4 3.5V0.5C4 0.223858 3.77614 0 3.5 0C3.22386 0 3 0.223858 3 0.5V3.5C3 3.77614 3.22386 4 3.5 4C3.77614 4 4 3.77614 4 3.5Z" fill="black"/>
<path d="M4 3.5V0.5C4 0.223858 3.77614 0 3.5 0C3.22386 0 3 0.223858 3 0.5V3.5C3 3.77614 3.22386 4 3.5 4C3.77614 4 4 3.77614 4 3.5Z" fill="black"/>
<path d="M4 3.5V0.5C4 0.223858 3.77614 0 3.5 0C3.22386 0 3 0.223858 3 0.5V3.5C3 3.77614 3.22386 4 3.5 4C3.77614 4 4 3.77614 4 3.5Z" fill="black"/>
<path d="M11 3.5V0.5C11 0.223858 10.7761 0 10.5 0C10.2239 0 10 0.223858 10 0.5V3.5C10 3.77614 10.2239 4 10.5 4C10.7761 4 11 3.77614 11 3.5Z" fill="black"/>
<path d="M11 3.5V0.5C11 0.223858 10.7761 0 10.5 0C10.2239 0 10 0.223858 10 0.5V3.5C10 3.77614 10.2239 4 10.5 4C10.7761 4 11 3.77614 11 3.5Z" fill="black"/>
<path d="M11 3.5V0.5C11 0.223858 10.7761 0 10.5 0C10.2239 0 10 0.223858 10 0.5V3.5C10 3.77614 10.2239 4 10.5 4C10.7761 4 11 3.77614 11 3.5Z" fill="black"/>
<path d="M7.5 3.5V0.5C7.5 0.223858 7.27614 0 7 0C6.72386 0 6.5 0.223858 6.5 0.5V3.5C6.5 3.77614 6.72386 4 7 4C7.27614 4 7.5 3.77614 7.5 3.5Z" fill="black"/>
<path d="M7.5 3.5V0.5C7.5 0.223858 7.27614 0 7 0C6.72386 0 6.5 0.223858 6.5 0.5V3.5C6.5 3.77614 6.72386 4 7 4C7.27614 4 7.5 3.77614 7.5 3.5Z" fill="black"/>
<path d="M7.5 3.5V0.5C7.5 0.223858 7.27614 0 7 0C6.72386 0 6.5 0.223858 6.5 0.5V3.5C6.5 3.77614 6.72386 4 7 4C7.27614 4 7.5 3.77614 7.5 3.5Z" fill="black"/>
<path d="M3.5 7.5C3.22386 7.5 3 7.72386 3 8C3 8.27614 3.22386 8.5 3.5 8.5C3.77614 8.5 4 8.27614 4 8C4 7.72386 3.77614 7.5 3.5 7.5Z" fill="black"/>
<path d="M3.5 7.5C3.22386 7.5 3 7.72386 3 8C3 8.27614 3.22386 8.5 3.5 8.5C3.77614 8.5 4 8.27614 4 8C4 7.72386 3.77614 7.5 3.5 7.5Z" fill="black"/>
<path d="M3.5 7.5C3.22386 7.5 3 7.72386 3 8C3 8.27614 3.22386 8.5 3.5 8.5C3.77614 8.5 4 8.27614 4 8C4 7.72386 3.77614 7.5 3.5 7.5Z" fill="black"/>
<path d="M3.5 10C3.22386 10 3 10.2239 3 10.5C3 10.7761 3.22386 11 3.5 11C3.77614 11 4 10.7761 4 10.5C4 10.2239 3.77614 10 3.5 10Z" fill="black"/>
<path d="M3.5 10C3.22386 10 3 10.2239 3 10.5C3 10.7761 3.22386 11 3.5 11C3.77614 11 4 10.7761 4 10.5C4 10.2239 3.77614 10 3.5 10Z" fill="black"/>
<path d="M3.5 10C3.22386 10 3 10.2239 3 10.5C3 10.7761 3.22386 11 3.5 11C3.77614 11 4 10.7761 4 10.5C4 10.2239 3.77614 10 3.5 10Z" fill="black"/>
<path d="M10.5 10C10.2239 10 10 10.2239 10 10.5C10 10.7761 10.2239 11 10.5 11C10.7761 11 11 10.7761 11 10.5C11 10.2239 10.7761 10 10.5 10Z" fill="black"/>
<path d="M10.5 10C10.2239 10 10 10.2239 10 10.5C10 10.7761 10.2239 11 10.5 11C10.7761 11 11 10.7761 11 10.5C11 10.2239 10.7761 10 10.5 10Z" fill="black"/>
<path d="M10.5 10C10.2239 10 10 10.2239 10 10.5C10 10.7761 10.2239 11 10.5 11C10.7761 11 11 10.7761 11 10.5C11 10.2239 10.7761 10 10.5 10Z" fill="black"/>
<path d="M10.5 7.5C10.2239 7.5 10 7.72386 10 8C10 8.27614 10.2239 8.5 10.5 8.5C10.7761 8.5 11 8.27614 11 8C11 7.72386 10.7761 7.5 10.5 7.5Z" fill="black"/>
<path d="M10.5 7.5C10.2239 7.5 10 7.72386 10 8C10 8.27614 10.2239 8.5 10.5 8.5C10.7761 8.5 11 8.27614 11 8C11 7.72386 10.7761 7.5 10.5 7.5Z" fill="black"/>
<path d="M10.5 7.5C10.2239 7.5 10 7.72386 10 8C10 8.27614 10.2239 8.5 10.5 8.5C10.7761 8.5 11 8.27614 11 8C11 7.72386 10.7761 7.5 10.5 7.5Z" fill="black"/>
<path d="M7 7.5C6.72386 7.5 6.5 7.72386 6.5 8C6.5 8.27614 6.72386 8.5 7 8.5C7.27614 8.5 7.5 8.27614 7.5 8C7.5 7.72386 7.27614 7.5 7 7.5Z" fill="black"/>
<path d="M7 7.5C6.72386 7.5 6.5 7.72386 6.5 8C6.5 8.27614 6.72386 8.5 7 8.5C7.27614 8.5 7.5 8.27614 7.5 8C7.5 7.72386 7.27614 7.5 7 7.5Z" fill="black"/>
<path d="M7 7.5C6.72386 7.5 6.5 7.72386 6.5 8C6.5 8.27614 6.72386 8.5 7 8.5C7.27614 8.5 7.5 8.27614 7.5 8C7.5 7.72386 7.27614 7.5 7 7.5Z" fill="black"/>
<path d="M7 10C6.72386 10 6.5 10.2239 6.5 10.5C6.5 10.7761 6.72386 11 7 11C7.27614 11 7.5 10.7761 7.5 10.5C7.5 10.2239 7.27614 10 7 10Z" fill="black"/>
<path d="M7 10C6.72386 10 6.5 10.2239 6.5 10.5C6.5 10.7761 6.72386 11 7 11C7.27614 11 7.5 10.7761 7.5 10.5C7.5 10.2239 7.27614 10 7 10Z" fill="black"/>
<path d="M7 10C6.72386 10 6.5 10.2239 6.5 10.5C6.5 10.7761 6.72386 11 7 11C7.27614 11 7.5 10.7761 7.5 10.5C7.5 10.2239 7.27614 10 7 10Z" fill="black"/>
<path d="M10.5 5C10.2239 5 10 5.22386 10 5.5C10 5.77614 10.2239 6 10.5 6C10.7761 6 11 5.77614 11 5.5C11 5.22386 10.7761 5 10.5 5Z" fill="black"/>
<path d="M10.5 5C10.2239 5 10 5.22386 10 5.5C10 5.77614 10.2239 6 10.5 6C10.7761 6 11 5.77614 11 5.5C11 5.22386 10.7761 5 10.5 5Z" fill="black"/>
<path d="M10.5 5C10.2239 5 10 5.22386 10 5.5C10 5.77614 10.2239 6 10.5 6C10.7761 6 11 5.77614 11 5.5C11 5.22386 10.7761 5 10.5 5Z" fill="black"/>
<path d="M7 5C6.72386 5 6.5 5.22386 6.5 5.5C6.5 5.77614 6.72386 6 7 6C7.27614 6 7.5 5.77614 7.5 5.5C7.5 5.22386 7.27614 5 7 5Z" fill="black"/>
<path d="M7 5C6.72386 5 6.5 5.22386 6.5 5.5C6.5 5.77614 6.72386 6 7 6C7.27614 6 7.5 5.77614 7.5 5.5C7.5 5.22386 7.27614 5 7 5Z" fill="black"/>
<path d="M7 5C6.72386 5 6.5 5.22386 6.5 5.5C6.5 5.77614 6.72386 6 7 6C7.27614 6 7.5 5.77614 7.5 5.5C7.5 5.22386 7.27614 5 7 5Z" fill="black"/>
</svg>
