<svg width="164" height="52" viewBox="0 0 164 52" fill="none" xmlns="http://www.w3.org/2000/svg">
<path fill-rule="evenodd" clip-rule="evenodd" d="M50.3585 22.5346H50.5V22.682C50.4057 22.7803 50.3585 22.8786 50.3585 22.9769C50.2642 22.9769 50.0756 23.0261 49.7926 23.1244H49.2267C49.2267 23.0261 48.7551 22.682 47.8119 22.0921C46.8687 21.404 46.0198 20.8633 45.2653 20.47C44.4164 20.1751 43.6619 19.8311 43.0016 19.4378C42.3414 19.0446 41.6339 18.553 40.8794 17.9631C40.0305 17.3733 39.3232 16.98 38.7572 16.7834C38.097 16.5868 37.5783 16.1935 37.2009 15.6037L36.635 14.7189V14.5714H36.4936V14.4239H36.3521V14.2765H36.2106V14.129H35.9277V13.9816H35.7862V13.8341H35.6447L35.7862 15.3087C35.8805 16.1935 36.022 16.7343 36.2106 16.9309C36.4936 17.0292 36.8237 17.1767 37.2009 17.3733C37.6725 17.5699 38.0027 17.914 38.1913 18.4055C38.4743 18.8971 38.7572 19.192 39.0402 19.2903C39.2288 19.3886 39.3703 19.4378 39.4646 19.4378H39.6061L39.7476 19.5852L39.8891 19.7327H40.0305V19.8802H40.172V20.0277H39.8891L39.3232 20.1751C38.9459 20.2734 38.6158 20.3226 38.3328 20.3226C38.0499 20.3226 37.5311 20.3717 36.7765 20.47L35.7862 20.6175L35.6447 20.47L35.5032 20.3226H35.3617V20.0277C35.3617 19.8311 35.5032 19.6344 35.7862 19.4378L36.2106 19.1429V18.8479H36.0691L35.9277 18.7004C35.8333 18.6021 35.5504 18.4547 35.0788 18.2581C34.6072 18.0615 34.277 17.5207 34.0885 16.636L33.664 15.4562V15.3087H33.5225L33.381 15.1613H33.0981V15.4562L32.9566 15.6037L32.8151 15.8986L32.1077 18.553C31.6361 20.4209 31.0231 21.8956 30.2685 22.9769C29.6082 23.9601 28.948 24.9924 28.2878 26.0737C27.7219 27.0568 27.3446 27.7942 27.156 28.2857C26.9673 28.6789 26.873 29.0231 26.873 29.318V29.7604L26.7315 29.9079L26.59 30.0553H26.3071V29.318C26.3071 28.8264 26.4957 28.0891 26.873 27.106C27.2503 26.0246 27.769 24.9431 28.4293 23.8617C29.0895 22.7803 29.6082 21.6989 29.9855 20.6175L30.5515 18.8479V17.9631H29.7026L29.5611 18.1106L29.4196 18.2581H29.2781V18.4055H29.1366L28.7122 19.4378C28.4293 20.126 27.9105 21.5023 27.156 23.5668C26.4014 25.6313 25.5053 27.6468 24.4679 29.6129C23.4304 31.4808 22.3456 33.103 21.2138 34.4793C20.1763 35.659 19.2331 36.5438 18.3842 37.1336C17.5354 37.7235 16.5921 38.2151 15.5546 38.6083C14.6115 39.0015 14.0928 39.2473 13.9984 39.3456L13.8569 39.4931H13.574V39.6405H13.4325V39.788H13.0081V39.9355V39.4931H13.1495V39.3456H13.291V39.1982H13.4325V39.0507H13.574V38.9032H13.7154V38.7557C13.8098 38.7557 14.7529 38.1167 16.545 36.8387C18.4313 35.4624 19.6104 34.5284 20.082 34.0369C20.6479 33.5453 21.3081 32.6114 22.0627 31.235C22.8172 29.8587 23.4775 28.5806 24.0434 27.4009C24.4207 26.3195 24.2792 25.3855 23.619 24.5991C22.8644 23.7143 22.2513 23.2719 21.7797 23.2719C21.4025 23.2719 20.978 23.3702 20.5064 23.5668C20.0349 23.7634 19.6576 24.1567 19.3746 24.7465C19.0916 25.3364 18.5729 26.9094 17.8183 29.4654L16.6865 33.1521L16.545 33.2996L16.4036 33.5945V34.0369H16.2621V34.1844H16.1206V33.5945L16.2621 33.1521L16.4036 32.7097V32.2673H16.2621V32.4148H16.1206V32.5622L15.9791 32.7097L15.8376 32.8571V33.0046H15.6962V33.1521H15.5546L14.9887 34.0369C14.5171 34.725 14.2813 35.0691 14.2813 35.0691H14.1399V35.2166H13.9984V35.364H13.4325L13.291 35.5115L13.1495 35.659H12.8666V35.5115H13.0081V35.2166H13.1495V35.0691H13.291V34.7742L13.4325 34.6267C13.5268 34.5284 13.9984 33.6436 14.8473 31.9723C15.6962 30.3011 16.2149 29.1705 16.4036 28.5806L16.6865 27.8433V27.2535H16.545V27.106H16.2621V27.2535H16.1206V27.5484H15.9791V27.6959H15.8376V27.9908L13.291 32.7097C11.5932 35.8556 10.65 37.5761 10.4614 37.871L10.1785 38.3134V38.4609H10.037V38.6083H9.8955V38.9032H9.75402V39.0507H9.61254V39.3456H9.47106V39.4931L8.76366 40.083L7.91479 40.9678H7.77331V41.1152H7.63183V41.2627H7.49036V41.4101H7.34887V41.5576H7.2074L7.06592 41.7051L6.92444 41.8526H6.78296L6.64148 42H6.5V41.7051H6.78296V41.4101L6.92444 41.2627L7.06592 41.1152V40.9678H7.2074V40.8203C7.30171 40.8203 7.63183 40.3779 8.19775 39.4931C8.76366 38.51 9.47106 37.1336 10.3199 35.364L11.5932 32.8571L11.7347 32.7097L11.8762 32.5622V32.2673H12.0177V32.1198H12.1592V31.9723C12.1592 31.874 12.8194 30.4486 14.1399 27.6959C15.4603 24.9431 16.2621 23.3703 16.545 22.9769C16.9223 22.5837 17.2524 22.3871 17.5354 22.3871C17.9126 22.3871 18.2428 22.1413 18.5257 21.6498C18.8087 21.2565 19.2331 20.6175 19.7991 19.7327C20.365 18.8479 20.7422 18.3072 20.9309 18.1106L21.3553 17.9631H21.6383L22.0627 18.1106C22.2513 18.3072 22.723 18.8971 23.4775 19.8802C24.0434 20.8633 24.4207 21.5023 24.6093 21.7972C24.798 21.9938 24.9394 22.0921 25.0338 22.0921H25.1752V22.2396L25.3167 22.3871L25.4582 22.5346V22.682H26.0241V22.2396L27.0145 20.0277C27.6747 18.553 28.1935 17.5698 28.5707 17.0783C29.0423 16.6851 29.5139 16.2427 29.9855 15.7512C30.5515 15.2596 31.306 14.3256 32.2492 12.9493C33.1924 11.573 33.7583 10.7864 33.9469 10.5899C34.2299 10.3932 34.6072 10.1966 35.0788 10C35.5504 10 36.1163 10.2458 36.7765 10.7373C37.3424 11.2289 38.0027 11.7696 38.7572 12.3595C39.3232 13.0476 39.9362 13.8341 40.5964 14.7189C41.2567 15.702 41.917 16.4885 42.5772 17.0783C43.3317 17.6682 44.4635 18.4547 45.9727 19.4378C47.4818 20.4209 48.5664 21.109 49.2267 21.5023C49.7926 22.0921 50.1227 22.3871 50.217 22.3871C50.3114 22.3871 50.3585 22.4363 50.3585 22.5346Z" fill="#F2994A"/>
<path d="M67.5977 20.7363L66.75 25.3164L68.9512 33.5469C68.6504 34.7044 68.0807 35.7435 67.2422 36.6641C66.4128 37.5846 65.4102 38.2454 64.2344 38.6465C64.043 38.6738 63.847 38.6875 63.6465 38.6875C62.9811 38.6875 62.2656 38.6055 61.5 38.4414C60.7435 38.2773 60.069 38.0677 59.4766 37.8125C58.8841 37.5573 58.4876 37.3021 58.2871 37.0469C58.2689 36.8099 58.2598 36.6413 58.2598 36.541C58.2598 36.2493 58.319 35.8392 58.4375 35.3105C58.556 34.7819 58.7155 34.276 58.916 33.793C59.1165 33.3008 59.3353 32.9453 59.5723 32.7266C59.9824 32.9727 60.5749 33.3555 61.3496 33.875C62.0423 34.3307 62.5938 34.6862 63.0039 34.9414C63.4232 35.1966 63.7194 35.3561 63.8926 35.4199L63.0039 26.5742L63.0449 20.6406L61.2402 20.4219V23.375L58.9707 23.8672C58.6882 23.5755 58.3965 23.1562 58.0957 22.6094C57.804 22.0534 57.5579 21.4518 57.3574 20.8047C57.166 20.1484 57.0703 19.5286 57.0703 18.9453C57.0703 18.2435 57.2025 17.6419 57.4668 17.1406C57.7402 16.6302 58.1048 16.2474 58.5605 15.9922C59.0163 15.7279 59.5221 15.5957 60.0781 15.5957C60.5612 15.5957 61.1536 15.6914 61.8555 15.8828C62.5573 16.0651 63.2454 16.3021 63.9199 16.5938C64.5944 16.8763 65.1413 17.1543 65.5605 17.4277C65.9069 16.9082 66.3398 16.4342 66.8594 16.0059C67.388 15.5775 67.9577 15.3496 68.5684 15.3223C69.0697 15.696 69.4798 16.2656 69.7988 17.0312C70.1178 17.7969 70.2773 18.5762 70.2773 19.3691C70.2773 19.9069 70.2044 20.3763 70.0586 20.7773C69.931 20.8503 69.7578 20.9095 69.5391 20.9551C69.3294 20.9915 69.1107 21.0098 68.8828 21.0098C68.3177 21.0098 67.9121 20.9186 67.666 20.7363H67.5977ZM84.6602 17.8242C85.8906 23.9219 86.7018 28.1693 87.0938 30.5664C87.4948 32.9544 87.6953 34.5586 87.6953 35.3789C87.6953 35.543 87.6862 35.7617 87.668 36.0352C86.875 36.5273 85.9225 36.7734 84.8105 36.7734C84.1178 36.7734 83.4661 36.6732 82.8555 36.4727C82.2539 36.2721 81.7936 36.0033 81.4746 35.666L82.582 31.9473L82.3223 30.7578H81.584C80.4538 30.694 79.2962 30.612 78.1113 30.5117C77.9473 31.8698 77.765 32.9635 77.5645 33.793C77.3639 34.6224 77.0085 35.3288 76.498 35.9121C75.9967 36.4863 75.2858 36.7734 74.3652 36.7734C73.5632 36.7734 72.8203 36.5775 72.1367 36.1855C71.4531 35.7936 70.9837 35.2604 70.7285 34.5859L71.3438 32.3574L73.1484 32.5078L75.5273 20.5449C74.0781 20.3444 73.0299 20.1211 72.3828 19.875C72.4102 19.082 72.5742 18.2435 72.875 17.3594C73.1849 16.4753 73.6042 15.7962 74.1328 15.3223C77.4961 15.8783 81.0052 16.7122 84.6602 17.8242ZM81.6113 27.5449L80.1895 21.0371L79.0137 20.9414C78.9681 21.7344 78.8906 22.7689 78.7812 24.0449C78.681 25.321 78.5625 26.5879 78.4258 27.8457L81.6113 27.5449ZM102.174 31.0996C100.788 23.0605 100.096 18.3438 100.096 16.9492C100.205 16.7122 100.433 16.4889 100.779 16.2793C101.126 16.0697 101.536 15.9056 102.01 15.7871C102.484 15.6595 102.958 15.5957 103.432 15.5957C103.824 15.5957 104.238 15.6504 104.676 15.7598C105.113 15.86 105.464 16.0013 105.729 16.1836L104.553 31.7422C104.972 32.2526 105.296 32.722 105.523 33.1504C105.751 33.5788 105.92 34.0983 106.029 34.709C105.738 35.4108 105.268 35.9349 104.621 36.2812C103.983 36.6185 103.236 36.7871 102.379 36.7871C101.695 36.7871 100.98 36.7005 100.232 36.5273C99.4941 36.3633 98.9382 36.1309 98.5645 35.8301C98.5371 35.6751 98.5234 35.4746 98.5234 35.2285C98.5234 34.8639 98.5508 34.4902 98.6055 34.1074C98.6693 33.7155 98.7604 33.3965 98.8789 33.1504L92.9043 20.5039L92.8359 20.5312C93.0182 21.1328 93.3145 22.2448 93.7246 23.8672C94.1348 25.4805 94.5267 27.1576 94.9004 28.8984C95.2832 30.6393 95.5293 32.043 95.6387 33.1094C95.6569 33.3828 95.666 33.5879 95.666 33.7246C95.666 34.6452 95.429 35.3835 94.9551 35.9395C94.4902 36.4954 93.7611 36.7734 92.7676 36.7734C91.9473 36.7734 91.1862 36.5729 90.4844 36.1719C89.7826 35.7708 89.2721 35.2331 88.9531 34.5586L89.377 32.3301L90.8945 32.4531L90.7852 20.4355C90.3568 20.4082 89.9329 20.3398 89.5137 20.2305C89.1035 20.112 88.7389 19.9479 88.4199 19.7383C88.4199 18.7539 88.5703 17.8835 88.8711 17.127C89.181 16.3704 89.7552 15.7689 90.5938 15.3223C91.487 15.4316 92.5215 15.6732 93.6973 16.0469C94.873 16.4206 95.9121 16.9264 96.8145 17.5645L102.119 31.1543L102.174 31.0996ZM115.367 38.1816C119.068 37.9264 121.574 37.7122 122.887 37.5391C122.996 37.8125 123.051 38.1361 123.051 38.5098C123.051 38.9655 122.973 39.4486 122.818 39.959C122.673 40.4694 122.472 40.9342 122.217 41.3535C121.962 41.7819 121.688 42.0964 121.396 42.2969C121.324 42.4427 121.196 42.543 121.014 42.5977C120.148 42.4974 119.004 42.2832 117.582 41.9551C116.169 41.6361 114.911 41.2669 113.809 40.8477C113.207 41.6224 112.478 42.0417 111.621 42.1055C111.038 41.7409 110.577 41.1257 110.24 40.2598C109.912 39.403 109.771 38.5007 109.816 37.5527C110.227 37.3249 110.577 37.1471 110.869 37.0195C111.161 36.901 111.471 36.819 111.799 36.7734L112.551 37.4434L114.547 36.0898C113.389 35.9349 112.332 35.7253 111.375 35.4609C110.418 35.1875 109.734 34.8639 109.324 34.4902C109.06 32.8132 108.805 30.5755 108.559 27.7773C108.312 24.9701 108.189 22.8965 108.189 21.5566C108.189 20.7819 108.217 20.1029 108.271 19.5195C108.335 18.9271 108.472 18.4941 108.682 18.2207C108.992 17.8105 109.607 17.3822 110.527 16.9355C111.457 16.4889 112.414 16.1107 113.398 15.8008C114.383 15.4818 115.044 15.3223 115.381 15.3223C115.855 15.3223 116.616 15.4818 117.664 15.8008C118.721 16.1107 119.747 16.5072 120.74 16.9902C121.734 17.4733 122.431 17.9564 122.832 18.4395C122.914 19.1595 122.969 19.7474 122.996 20.2031C123.033 20.6589 123.051 21.2604 123.051 22.0078C123.051 22.9831 122.987 24.3047 122.859 25.9727C122.732 27.6406 122.572 29.2311 122.381 30.7441C122.189 32.2572 122.012 33.3099 121.848 33.9023C121.747 34.3034 121.324 34.7181 120.576 35.1465C120.166 35.4199 119.642 35.7116 119.004 36.0215C118.366 36.3314 117.596 36.6914 116.693 37.1016C116.329 37.2656 116.01 37.4115 115.736 37.5391C115.463 37.6758 115.322 37.7578 115.312 37.7852L115.367 38.1816ZM113.439 25.7539C113.439 28.4609 113.503 30.5345 113.631 31.9746C114.05 32.2207 114.556 32.4714 115.148 32.7266C115.741 32.9818 116.26 33.1549 116.707 33.2461L117.541 32.6719C117.641 31.7422 117.691 30.3477 117.691 28.4883C117.691 27.1576 117.664 25.8314 117.609 24.5098C117.564 23.1882 117.5 22.0898 117.418 21.2148L114.533 19.9707L113.59 20.4492C113.49 21.7253 113.439 23.4935 113.439 25.7539ZM140.701 19.3145C140.801 20.2168 140.852 21.1146 140.852 22.0078C140.852 22.9831 140.788 24.3047 140.66 25.9727C140.533 27.6406 140.373 29.2311 140.182 30.7441C139.99 32.2572 139.812 33.3099 139.648 33.9023C139.566 34.2031 139.348 34.4766 138.992 34.7227C138.646 34.9596 138.176 35.224 137.584 35.5156C137.529 35.543 137.465 35.5749 137.393 35.6113C137.329 35.6387 137.26 35.6706 137.188 35.707C136.522 36.0443 135.948 36.2995 135.465 36.4727C134.982 36.6367 134.503 36.7415 134.029 36.7871C133.355 36.7507 132.566 36.6185 131.664 36.3906C130.762 36.1536 129.91 35.8665 129.107 35.5293C128.314 35.1829 127.722 34.8366 127.33 34.4902C127.075 32.8678 126.833 30.6849 126.605 27.9414C126.387 25.1888 126.277 23.1152 126.277 21.7207C126.277 21.1556 126.286 20.709 126.305 20.3809L124.391 19.7383C124.464 18.7721 124.687 17.9062 125.061 17.1406C125.443 16.375 126.072 15.7689 126.947 15.3223C128.05 15.459 129.723 16.3841 131.965 18.0977L131.924 18.125L131.965 18.1113L131.623 20.4492L131.609 25.7539C131.609 28.6797 131.678 30.8444 131.814 32.248C132.844 32.8496 133.984 33.2279 135.232 33.3828C135.287 32.9089 135.328 32.1979 135.355 31.25C135.383 30.3021 135.396 29.3815 135.396 28.4883C135.396 27.112 135.369 25.5807 135.314 23.8945C135.26 22.1992 135.191 20.9277 135.109 20.0801L132.867 19.4512C132.949 18.5671 133.241 17.7467 133.742 16.9902C134.243 16.2246 134.932 15.6686 135.807 15.3223C136.271 15.3861 136.951 15.6048 137.844 15.9785C138.737 16.3522 139.598 16.7715 140.428 17.2363L140.592 18.4258V18.4395L140.633 18.7949L140.701 19.3145ZM154.195 15.3223C154.624 15.5684 154.947 15.9603 155.166 16.498C155.385 17.0358 155.494 17.6374 155.494 18.3027C155.494 19.0501 155.362 19.7656 155.098 20.4492C154.842 21.1328 154.496 21.6432 154.059 21.9805C153.384 21.9167 152.655 21.7936 151.871 21.6113C151.096 21.4199 149.889 21.1009 148.248 20.6543L147.646 20.4902L148.18 24.8652C149.219 24.7467 150.08 24.6283 150.764 24.5098C151.447 24.3913 152.29 24.2272 153.293 24.0176C153.32 24.0085 153.68 23.931 154.373 23.7852C154.738 24.3411 154.92 25.0339 154.92 25.8633C154.92 26.4193 154.847 26.957 154.701 27.4766C154.555 27.987 154.396 28.3333 154.223 28.5156C153.949 28.543 153.676 28.5566 153.402 28.5566C152.464 28.5566 151.548 28.4655 150.654 28.2832C149.77 28.1009 148.982 27.8138 148.289 27.4219L148.098 32.2754L152.021 32.4121L153.143 29.8145L155.604 30.0195C155.74 30.3932 155.859 30.972 155.959 31.7559C156.068 32.5306 156.123 33.2324 156.123 33.8613C155.758 34.5996 155.28 35.224 154.688 35.7344C154.104 36.2357 153.439 36.582 152.691 36.7734C151.507 36.737 150.048 36.5957 148.316 36.3496C146.594 36.0944 145.227 35.8346 144.215 35.5703C143.495 34.7135 143.071 33.8203 142.943 32.8906L145.104 27.1895L141.781 19.2051C141.781 18.6126 142.005 17.9701 142.451 17.2773C142.898 16.5755 143.417 16.0195 144.01 15.6094L148.562 16.6074L154.195 15.3223Z" fill="#4F4F4F"/>
</svg>
