<svg width="135" height="31" viewBox="0 0 135 31" fill="none" xmlns="http://www.w3.org/2000/svg">
<path fill-rule="evenodd" clip-rule="evenodd" d="M46.1755 12.6695H46.2857V12.7833C46.2122 12.8591 46.1755 12.9349 46.1755 13.0108C46.102 13.0108 45.955 13.0487 45.7345 13.1246H45.2935C45.2935 13.0487 44.9261 12.7833 44.1911 12.3282C43.4561 11.7973 42.7946 11.3803 42.2067 11.0769C41.5452 10.8494 40.9573 10.584 40.4428 10.2806C39.9283 9.97723 39.3771 9.59803 38.7891 9.14299C38.1277 8.68795 37.5765 8.38459 37.1355 8.23291C36.6211 8.08123 36.2168 7.77787 35.9228 7.32283L35.4818 6.64027V6.52654H35.3716V6.41275H35.2614V6.29902H35.1511V6.18523H34.9306V6.0715H34.8204V5.95771H34.7102L34.8204 7.09531C34.8939 7.77787 35.0041 8.19502 35.1511 8.3467C35.3716 8.42249 35.6288 8.53627 35.9228 8.68795C36.2903 8.83963 36.5476 9.10505 36.6945 9.48425C36.915 9.86345 37.1355 10.091 37.356 10.1668C37.503 10.2427 37.6132 10.2806 37.6867 10.2806H37.797L37.9072 10.3943L38.0174 10.5081H38.1277V10.6219H38.2379V10.7356H38.0174L37.5765 10.8494C37.2825 10.9252 37.0253 10.9632 36.8048 10.9632C36.5843 10.9632 36.18 11.0011 35.5921 11.0769L34.8204 11.1907L34.7102 11.0769L34.5999 10.9632H34.4897V10.7356C34.4897 10.584 34.5999 10.4323 34.8204 10.2806L35.1511 10.0531V9.82555H35.0409L34.9306 9.71177C34.8571 9.63593 34.6367 9.52219 34.2692 9.37051C33.9017 9.21883 33.6444 8.80169 33.4975 8.11918L33.1667 7.2091V7.09531H33.0565L32.9462 6.98158H32.7258V7.2091L32.6155 7.32283L32.5053 7.55035L31.9541 9.59803C31.5866 11.039 31.1089 12.1766 30.5209 13.0108C30.0064 13.7692 29.492 14.5655 28.9775 15.3997C28.5365 16.1581 28.2425 16.7269 28.0956 17.1061C27.9486 17.4095 27.8751 17.6749 27.8751 17.9024V18.2437L27.7648 18.3575L27.6545 18.4712H27.4341V17.9024C27.4341 17.5232 27.5811 16.9545 27.8751 16.1961C28.1691 15.3618 28.5733 14.5275 29.0877 13.6933C29.6022 12.8591 30.0064 12.0249 30.3004 11.1907L30.7414 9.82555V9.14299H30.0799L29.9697 9.25673L29.8594 9.37051H29.7492V9.48425H29.6389L29.3082 10.2806C29.0877 10.8115 28.6835 11.8732 28.0956 13.4658C27.5076 15.0585 26.8093 16.6132 26.0009 18.13C25.1925 19.5709 24.3473 20.8223 23.4653 21.884C22.6569 22.7941 21.9219 23.4766 21.2604 23.9317C20.599 24.3867 19.864 24.7659 19.0556 25.0693C18.3206 25.3726 17.9164 25.5622 17.8429 25.638L17.7327 25.7518H17.5122V25.8656H17.4019V25.9793H17.0712V26.0931V25.7518H17.1814V25.638H17.2917V25.5243H17.4019V25.4105H17.5122V25.2968H17.6224V25.183C17.6959 25.183 18.4309 24.6901 19.8273 23.7041C21.2971 22.6424 22.2159 21.9219 22.5834 21.5427C23.0244 21.1635 23.5388 20.4431 24.1268 19.3813C24.7147 18.3195 25.2292 17.3336 25.6702 16.4236C25.9642 15.5893 25.8539 14.8688 25.3395 14.2621C24.7515 13.5796 24.2738 13.2383 23.9063 13.2383C23.6123 13.2383 23.2816 13.3141 22.9141 13.4658C22.5466 13.6175 22.2527 13.9209 22.0322 14.3759C21.8116 14.8309 21.4074 16.0444 20.8195 18.0162L19.9375 20.8602L19.8273 20.9739L19.7171 21.2015V21.5427H19.6068V21.6565H19.4966V21.2015L19.6068 20.8602L19.7171 20.5189V20.1776H19.6068V20.2914H19.4966V20.4051L19.3863 20.5189L19.2761 20.6326V20.7464H19.1658V20.8602H19.0556L18.6146 21.5427C18.2471 22.0736 18.0634 22.339 18.0634 22.339H17.9531V22.4528H17.8429V22.5665H17.4019L17.2917 22.6803L17.1814 22.7941H16.961V22.6803H17.0712V22.4528H17.1814V22.339H17.2917V22.1115L17.4019 21.9978C17.4754 21.9219 17.8429 21.2394 18.5044 19.9501C19.1658 18.6608 19.5701 17.7887 19.7171 17.3336L19.9375 16.7648V16.3098H19.8273V16.1961H19.6068V16.3098H19.4966V16.5373H19.3863V16.6511H19.2761V16.8786L17.2917 20.5189C15.9687 22.9457 15.2338 24.273 15.0868 24.5005L14.8663 24.8417V24.9555H14.7561V25.0693H14.6458V25.2968H14.5356V25.4105H14.4254V25.638H14.3151V25.7518L13.7639 26.2069L13.1024 26.8894H12.9922V27.0032H12.8819V27.1169H12.7717V27.2307H12.6615V27.3445H12.5512L12.441 27.4582L12.3307 27.572H12.2205L12.1102 27.6857H12V27.4582H12.2205V27.2307L12.3307 27.1169L12.441 27.0032V26.8894H12.5512V26.7756C12.6247 26.7756 12.8819 26.4344 13.3229 25.7518C13.7639 24.9934 14.3151 23.9317 14.9766 22.5665L15.9687 20.6326L16.079 20.5189L16.1892 20.4051V20.1776H16.2995V20.0639H16.4098V19.9501C16.4098 19.8742 16.9242 18.7746 17.9531 16.6511C18.9821 14.5275 19.6068 13.3142 19.8273 13.0108C20.1213 12.7074 20.3785 12.5557 20.599 12.5557C20.893 12.5557 21.1502 12.3662 21.3707 11.987C21.5912 11.6836 21.9219 11.1907 22.3629 10.5081C22.8039 9.82555 23.0978 9.40841 23.2448 9.25673L23.5756 9.14299H23.796L24.1268 9.25673C24.2738 9.40841 24.6413 9.86345 25.2292 10.6219C25.6702 11.3803 25.9642 11.8732 26.1112 12.1007C26.2582 12.2524 26.3684 12.3282 26.4419 12.3282H26.5521V12.442L26.6624 12.5557L26.7726 12.6695V12.7833H27.2136V12.442L27.9853 10.7356C28.4998 9.59803 28.904 8.83959 29.198 8.46043C29.5654 8.15707 29.9329 7.81582 30.3004 7.43662C30.7414 7.05742 31.3294 6.33691 32.0643 5.2752C32.7993 4.21344 33.2403 3.60667 33.3872 3.45504C33.6077 3.30336 33.9017 3.15168 34.2692 3C34.6367 3 35.0776 3.1896 35.5921 3.56878C36.0331 3.94798 36.5476 4.36512 37.1355 4.82016C37.5765 5.35104 38.0542 5.95771 38.5687 6.64027C39.0832 7.39867 39.5976 8.00539 40.1121 8.46043C40.7 8.91547 41.582 9.52219 42.7579 10.2806C43.9339 11.039 44.779 11.5698 45.2935 11.8732C45.7345 12.3282 45.9917 12.5557 46.0652 12.5557C46.1387 12.5557 46.1755 12.5937 46.1755 12.6695Z" fill="#F2994A"/>
<path d="M64.1641 11.8608C64.1434 12.2822 64.1333 12.7036 64.1333 13.125C64.1333 13.5465 64.1227 13.9607 64.1021 14.3679C64.0885 14.5322 64.0612 14.7 64.0199 14.8715C63.9856 15.0429 63.9685 15.2107 63.9685 15.375C63.9685 15.5107 63.9786 15.6393 63.9992 15.7607C64.0199 15.875 64.03 15.9893 64.03 16.1036C64.03 16.2322 64.0063 16.3572 63.9579 16.4786C63.9166 16.5929 63.8792 16.7215 63.8445 16.8643C63.8173 17.0143 63.8001 17.1715 63.7931 17.3357C63.7865 17.5 63.7794 17.6643 63.7724 17.8286C63.7658 17.9929 63.7588 18.15 63.7522 18.3C63.7452 18.45 63.728 18.5857 63.7003 18.7072C63.6797 18.7929 63.6318 18.8893 63.5561 18.9964C63.4876 19.0965 63.4085 19.2 63.3192 19.3072C63.23 19.4143 63.1408 19.5215 63.0515 19.6286C62.9689 19.7286 62.9038 19.825 62.8555 19.9179C62.8146 19.9964 62.7803 20.0822 62.7526 20.175C62.7254 20.2679 62.7012 20.3607 62.6805 20.4536C62.6599 20.5465 62.6392 20.6358 62.6186 20.7215C62.5979 20.8072 62.5707 20.875 62.5364 20.925C62.4814 21.0107 62.3957 21.0893 62.2788 21.1607C62.1689 21.2322 62.0454 21.2929 61.9078 21.3429C61.7772 21.4 61.6401 21.45 61.4959 21.4929C61.3583 21.5357 61.2278 21.575 61.1043 21.6107C60.8502 21.6822 60.6168 21.7536 60.4036 21.825C60.1909 21.8965 59.9812 21.9607 59.7755 22.0179C59.5693 22.0822 59.3597 22.1322 59.1469 22.1679C58.9408 22.2036 58.7144 22.2214 58.4669 22.2214C58.1992 22.2214 57.928 22.2036 57.6529 22.1679C57.3786 22.1322 57.114 22.0858 56.8599 22.0286C56.6058 21.9715 56.3654 21.9 56.1386 21.8143C55.9188 21.7357 55.7232 21.6465 55.5513 21.5465C55.4757 21.4965 55.3865 21.4608 55.2836 21.4393C55.1805 21.4179 55.1016 21.3857 55.0466 21.3429C54.971 21.2858 54.8886 21.2036 54.7994 21.0965C54.7169 20.9822 54.6242 20.8822 54.5212 20.7964C54.2877 20.6179 54.061 20.4393 53.8412 20.2608C53.6215 20.075 53.4326 19.8286 53.2747 19.5215C53.2197 19.4143 53.1888 19.2858 53.1819 19.1357C53.1751 18.9857 53.1442 18.8429 53.0892 18.7072C53.0411 18.5857 52.9793 18.475 52.9038 18.375C52.8351 18.2679 52.7904 18.175 52.7698 18.0965C52.7423 17.9893 52.7218 17.8715 52.708 17.7429C52.6943 17.6143 52.6805 17.4822 52.6668 17.3465C52.6531 17.2036 52.6359 17.0643 52.6153 16.9286C52.6016 16.7857 52.5809 16.6572 52.5535 16.5429C52.5123 16.3357 52.4573 16.1107 52.3886 15.8679C52.32 15.625 52.2856 15.4107 52.2856 15.225C52.2856 15.1036 52.3096 15.0107 52.3577 14.9465C52.4058 14.875 52.4642 14.8143 52.5329 14.7643C52.6016 14.7072 52.6737 14.65 52.7492 14.5929C52.8317 14.5357 52.9003 14.4608 52.9553 14.3679C53.0171 14.2679 53.0617 14.1643 53.0892 14.0571C53.1167 13.95 53.1442 13.8429 53.1716 13.7357C53.206 13.6286 53.2437 13.5286 53.2849 13.4358C53.3262 13.3429 53.3914 13.2643 53.4807 13.2C53.5562 13.15 53.6387 13.1143 53.7279 13.0929C53.8172 13.0715 53.9065 13.0608 53.9958 13.0608C54.0919 13.0536 54.1881 13.05 54.2842 13.05C54.3873 13.0429 54.4869 13.0286 54.583 13.0072C54.7341 12.9714 54.8543 12.9286 54.9436 12.8786C55.0398 12.8286 55.1359 12.8036 55.2321 12.8036C55.4243 12.8036 55.5961 12.8429 55.7474 12.9215C55.8981 13.0001 56.0529 13.0715 56.2107 13.1357C56.4032 13.2214 56.5715 13.3107 56.7157 13.4036C56.8665 13.4893 57.0005 13.5893 57.1175 13.7036C57.241 13.8179 57.3544 13.95 57.4572 14.1C57.5605 14.2429 57.6634 14.4179 57.7663 14.625C57.8489 14.7893 57.9074 14.925 57.9416 15.0322C57.9759 15.1322 57.9966 15.2322 58.0032 15.3322C58.0172 15.425 58.0238 15.5357 58.0238 15.6643C58.0238 15.7929 58.0309 15.9679 58.0445 16.1893C58.0445 16.3679 58.0652 16.5465 58.1065 16.725C58.1478 16.8965 58.168 17.075 58.168 17.2608C58.168 17.425 58.1649 17.5964 58.1579 17.775C58.1509 17.9465 58.1478 18.1179 58.1478 18.2893C58.1478 18.5465 58.1614 18.8 58.1887 19.05C58.2164 19.2929 58.2713 19.5107 58.3535 19.7036C58.4361 19.8965 58.5526 20.0536 58.7038 20.175C58.8616 20.2965 59.0713 20.3572 59.3324 20.3572C59.463 20.3572 59.5764 20.3107 59.6722 20.2179C59.7685 20.125 59.8507 20.0072 59.9197 19.8643C59.9882 19.7215 60.0467 19.5643 60.0946 19.3929C60.1496 19.2143 60.201 19.0429 60.2493 18.8786C60.2972 18.7072 60.3456 18.5536 60.3935 18.4179C60.4485 18.275 60.51 18.1679 60.579 18.0965C60.6199 18.0536 60.6405 17.9572 60.6405 17.8072C60.6405 17.5857 60.6269 17.3857 60.5997 17.2072C60.572 17.0286 60.5583 16.85 60.5583 16.6715C60.5583 16.25 60.5856 15.825 60.6405 15.3964C60.6955 14.9607 60.7232 14.5215 60.7232 14.0786C60.7232 13.8572 60.706 13.6571 60.6718 13.4786C60.6375 13.2929 60.5997 13.1143 60.5583 12.9429C60.5241 12.7643 60.4898 12.5786 60.4555 12.3857C60.4208 12.1857 60.4036 11.9607 60.4036 11.7107V10.9822C60.4036 10.8536 60.3865 10.6893 60.3522 10.4893C60.3179 10.2822 60.2801 10.0536 60.2388 9.80362C60.2045 9.55361 60.1702 9.28577 60.1359 9.00005C60.1016 8.71434 60.0845 8.43219 60.0845 8.15361C60.0845 7.87502 60.1153 7.65715 60.1772 7.50003C60.2458 7.34291 60.3315 7.22501 60.4348 7.14648C60.5377 7.06789 60.6546 7.01432 60.7852 6.98574C60.9153 6.95717 61.0423 6.93217 61.1663 6.91073C61.317 6.88215 61.4753 6.85715 61.6401 6.83575C61.8115 6.80718 61.9764 6.79288 62.1346 6.79288C62.2924 6.79288 62.4159 6.81432 62.5056 6.85715C62.6014 6.8929 62.6841 6.94291 62.7526 7.00718C62.8282 7.06433 62.9003 7.13217 62.9689 7.21075C63.0445 7.28933 63.1408 7.37143 63.2572 7.45719C63.4155 7.5643 63.5667 7.63932 63.7109 7.68215C63.8621 7.7179 63.9685 7.77505 64.03 7.85358C64.1399 8.00362 64.2155 8.21075 64.2568 8.47502C64.3047 8.7393 64.3289 9.02858 64.3289 9.34291C64.3289 9.78574 64.3047 10.2358 64.2568 10.6929C64.2155 11.1429 64.1847 11.5322 64.1641 11.8608ZM76.2278 17.2179C76.2419 17.2822 76.252 17.3536 76.259 17.4322C76.2656 17.5036 76.2691 17.5786 76.2691 17.6571C76.2691 17.8429 76.252 18.0358 76.2177 18.2358C76.1834 18.4286 76.1386 18.6214 76.0836 18.8143C76.0357 19.0072 75.9808 19.1929 75.9188 19.3714C75.8638 19.5429 75.8124 19.7036 75.7645 19.8536C75.6682 20.1465 75.5961 20.3679 75.5478 20.5179C75.4999 20.6679 75.452 20.7786 75.4036 20.85C75.3557 20.9143 75.2937 20.95 75.2181 20.9572C75.1496 20.9643 75.0432 20.9679 74.899 20.9679C74.7957 20.9679 74.6621 20.9429 74.4972 20.8929C74.3324 20.8358 74.1641 20.7536 73.9922 20.6465C73.8208 20.5322 73.6594 20.3929 73.5082 20.2286C73.3641 20.0643 73.2643 19.8715 73.2093 19.65C73.2093 19.6072 73.223 19.5357 73.2507 19.4358C73.2779 19.3357 73.292 19.225 73.292 19.1036C73.2849 19.025 73.2713 18.9107 73.2507 18.7607C73.237 18.6107 73.2164 18.4465 73.1887 18.2679C73.1614 18.0822 73.1302 17.8965 73.0959 17.7107C73.0687 17.5179 73.0344 17.3429 72.9931 17.1857C72.9518 17.0286 72.9074 16.9 72.859 16.8C72.8177 16.7 72.7733 16.65 72.7254 16.65C72.5465 16.65 72.4159 16.6786 72.3337 16.7357C72.2581 16.7857 72.1931 16.8429 72.1381 16.9072C72.0832 16.9643 72.0212 17.0214 71.9526 17.0786C71.8907 17.1286 71.7878 17.1536 71.6436 17.1536C71.506 17.1536 71.3548 17.1393 71.19 17.1107C71.0252 17.075 70.8397 17.0393 70.634 17.0036C70.4348 16.9607 70.215 16.925 69.9746 16.8965C69.7342 16.8608 69.4696 16.8429 69.1812 16.8429C69.03 16.8429 68.8929 16.85 68.7693 16.8643C68.6454 16.8715 68.5632 16.8929 68.5219 16.9286C68.4463 16.9929 68.3913 17.1179 68.357 17.3036C68.3227 17.4893 68.2951 17.6965 68.2748 17.925C68.2542 18.1465 68.237 18.3679 68.223 18.5893C68.2093 18.8036 68.1821 18.975 68.1408 19.1036C68.1271 19.125 68.0994 19.1679 68.0581 19.2322C68.0172 19.2893 67.9689 19.3607 67.914 19.4465C67.859 19.525 67.8041 19.6143 67.7491 19.7143C67.6942 19.8072 67.6498 19.8965 67.6155 19.9822C67.5329 20.175 67.4608 20.3964 67.3988 20.6465C67.3438 20.8893 67.2753 21.1179 67.1931 21.3322C67.1175 21.5536 67.0212 21.7393 66.9043 21.8893C66.7878 22.0393 66.6296 22.1143 66.4304 22.1143C66.2999 22.1143 66.1764 22.0822 66.0599 22.0179C65.95 21.9536 65.8502 21.8786 65.761 21.7929C65.6783 21.7143 65.6098 21.6358 65.5548 21.5572C65.4999 21.4857 65.4691 21.4358 65.4621 21.4072C65.3799 21.2571 65.2972 21.1357 65.2151 21.0429C65.1394 20.9429 65.0674 20.8536 64.9983 20.775C64.9298 20.6965 64.8748 20.6143 64.8335 20.5286C64.7926 20.4358 64.772 20.3215 64.772 20.1857C64.772 20.1357 64.7755 20.0679 64.7821 19.9822C64.7821 19.8965 64.7891 19.8072 64.8027 19.7143C64.8098 19.6214 64.8199 19.5322 64.8335 19.4465C64.8476 19.3607 64.8612 19.2893 64.8748 19.2322C64.8885 19.1964 64.9126 19.1607 64.9469 19.125C64.9882 19.0822 65.026 19.0393 65.0603 18.9964C65.1016 18.9536 65.1359 18.9143 65.1632 18.8786C65.1979 18.8358 65.2151 18.7929 65.2151 18.75C65.2151 18.6929 65.1979 18.6393 65.1632 18.5893C65.1359 18.5393 65.1223 18.4858 65.1223 18.4286C65.1223 18.4143 65.1254 18.4036 65.1324 18.3964C65.1394 18.3893 65.143 18.3786 65.143 18.3643C65.2115 18.15 65.2937 17.9429 65.39 17.7429C65.4929 17.5429 65.5891 17.3393 65.6783 17.1322C65.7746 16.9179 65.8573 16.7 65.9258 16.4786C66.0014 16.25 66.0458 16 66.0599 15.7286C66.0599 15.6 66.0599 15.4608 66.0599 15.3107C66.0665 15.1607 66.0735 15.0107 66.0801 14.8608C66.0942 14.7036 66.1113 14.5536 66.132 14.4107C66.1592 14.2608 66.197 14.1286 66.2449 14.0143C66.252 13.9929 66.2827 13.9572 66.3377 13.9072C66.3997 13.8572 66.4647 13.7929 66.5337 13.7143C66.6023 13.6286 66.6608 13.5286 66.7087 13.4143C66.7636 13.2929 66.7913 13.1572 66.7913 13.0072C66.7913 12.9286 66.7843 12.8465 66.7707 12.7607C66.7566 12.675 66.75 12.5893 66.75 12.5036C66.75 12.4036 66.7636 12.3215 66.7913 12.2572C66.8256 12.1857 66.8634 12.1215 66.9043 12.0643C66.9526 12 66.997 11.9357 67.0383 11.8715C67.0863 11.8072 67.1241 11.7322 67.1518 11.6465C67.2067 11.4965 67.2375 11.3393 67.2445 11.175C67.2511 11.0036 67.2546 10.8358 67.2546 10.6715C67.2546 10.5 67.2581 10.3322 67.2652 10.1679C67.2788 10.0036 67.3131 9.84645 67.368 9.69646C67.3816 9.63219 67.4129 9.57861 67.4608 9.53573C67.5087 9.48572 67.557 9.43932 67.6049 9.39644C67.6599 9.34647 67.7082 9.2929 67.7491 9.23575C67.7904 9.17861 67.8111 9.11073 67.8111 9.03219C67.8111 8.97505 67.8041 8.9179 67.7904 8.86076C67.7834 8.79644 67.7803 8.7286 67.7803 8.65719C67.7803 8.4929 67.8146 8.32504 67.8832 8.15361C67.9588 7.98218 68.041 7.81432 68.1302 7.65002C68.2199 7.47859 68.2986 7.31429 68.3676 7.15717C68.4427 6.99288 68.4805 6.84289 68.4805 6.70716V6.4929C68.4805 6.35717 68.532 6.21788 68.6353 6.07502C68.7452 5.93217 68.8929 5.80362 69.0783 5.68933C69.2638 5.56787 69.4766 5.47146 69.717 5.40005C69.9641 5.32147 70.2216 5.28216 70.4898 5.28216C70.6405 5.28216 70.7746 5.3036 70.8915 5.34648C71.015 5.38218 71.1386 5.42501 71.2621 5.47502C71.386 5.52503 71.5197 5.57505 71.6643 5.62501C71.8085 5.66789 71.9764 5.6929 72.1689 5.70003C72.2788 5.70003 72.3922 5.68933 72.5087 5.66789C72.6326 5.63932 72.7562 5.61075 72.8797 5.58218C73.0032 5.54648 73.1271 5.5179 73.2507 5.49646C73.3742 5.46789 73.4946 5.45358 73.6111 5.45358C73.6731 5.45358 73.7522 5.47502 73.848 5.5179C73.9513 5.55361 74.0542 5.60362 74.157 5.66789C74.2669 5.73217 74.3702 5.80718 74.466 5.8929C74.5693 5.97861 74.6551 6.06789 74.7236 6.16074C74.8476 6.32503 74.9298 6.53217 74.9711 6.78218C75.019 7.03219 75.0533 7.30003 75.074 7.58574C75.1017 7.87146 75.1324 8.15717 75.1667 8.44289C75.201 8.7286 75.2665 8.98574 75.3627 9.21431C75.397 9.30716 75.4379 9.39287 75.4863 9.47146C75.5342 9.54286 75.579 9.62145 75.6203 9.70716C75.6682 9.79287 75.706 9.8929 75.7333 10.0072C75.7676 10.1143 75.7847 10.25 75.7847 10.4143C75.7847 10.6143 75.7746 10.8179 75.754 11.025C75.7333 11.225 75.7232 11.4179 75.7232 11.6036C75.7232 11.7536 75.7403 11.8786 75.7746 11.9786C75.8159 12.0786 75.8573 12.1679 75.8981 12.2465C75.9395 12.3179 75.9773 12.3893 76.0115 12.4608C76.0529 12.5322 76.0735 12.6179 76.0735 12.7179C76.0735 12.8536 76.0529 13.0072 76.0115 13.1786C75.9702 13.35 75.95 13.5179 75.95 13.6822C75.95 13.8393 75.9737 13.9822 76.0221 14.1107C76.07 14.2393 76.0871 14.3679 76.0735 14.4965C76.0665 14.6322 76.0423 14.7679 76.0014 14.9036C75.9601 15.0393 75.9153 15.1715 75.8674 15.3C75.8194 15.4286 75.7746 15.5572 75.7333 15.6858C75.6924 15.8143 75.6718 15.9393 75.6718 16.0608C75.6718 16.1607 75.6955 16.2572 75.7438 16.35C75.7918 16.4429 75.8467 16.5357 75.9087 16.6286C75.9702 16.7215 76.0322 16.8179 76.0942 16.9179C76.1557 17.0107 76.2006 17.1107 76.2278 17.2179ZM72.241 14.4322C72.2823 14.3679 72.303 14.2857 72.303 14.1857C72.303 14.0858 72.2858 13.9715 72.2511 13.8429C72.2168 13.7143 72.179 13.5929 72.1381 13.4786C72.1038 13.3572 72.0691 13.25 72.0348 13.1572C72.0005 13.0643 71.9834 13.0001 71.9834 12.9643C71.9834 12.8929 71.9939 12.8214 72.0142 12.75C72.0348 12.6786 72.0454 12.6036 72.0454 12.525C72.0454 12.3393 72.0076 12.15 71.932 11.9572C71.8564 11.7643 71.7707 11.5893 71.6744 11.4322C71.5852 11.2679 71.499 11.1286 71.4168 11.0143C71.3346 10.8929 71.2827 10.8107 71.2621 10.7679C71.2142 10.6536 71.1799 10.5393 71.1592 10.425C71.1456 10.3036 71.1249 10.1893 71.0972 10.0822C71.077 9.97505 71.0458 9.88215 71.0049 9.80362C70.9636 9.72504 70.8951 9.66433 70.7988 9.62145C70.6612 10.05 70.5135 10.4715 70.3557 10.8858C70.2045 11.3 70.0533 11.7215 69.9025 12.15C69.7583 12.5714 69.6208 13.0072 69.4902 13.4572C69.3667 13.9 69.2638 14.3643 69.1812 14.85C69.4216 14.8143 69.6687 14.7929 69.9232 14.7857C70.1773 14.7715 70.4485 14.7429 70.7368 14.7C70.7781 14.6929 70.8775 14.6786 71.0357 14.6572C71.1935 14.6358 71.3583 14.6107 71.5302 14.5822C71.7087 14.5536 71.8665 14.525 72.0041 14.4965C72.1482 14.4679 72.2274 14.4465 72.241 14.4322ZM88.4669 15.7929C88.4669 15.85 88.4704 15.9072 88.4775 15.9643C88.4841 16.0143 88.4876 16.0679 88.4876 16.125C88.4876 16.4322 88.4634 16.7536 88.4155 17.0893C88.3676 17.4179 88.3434 17.7536 88.3434 18.0965C88.3434 18.2179 88.3469 18.35 88.3535 18.4929C88.3606 18.6286 88.3641 18.7679 88.3641 18.9107C88.3641 19.0893 88.35 19.2679 88.3227 19.4465C88.3021 19.625 88.2577 19.7893 88.1887 19.9393C88.1201 20.0822 88.0173 20.2001 87.8797 20.2929C87.7491 20.3786 87.5777 20.4214 87.3645 20.4214C87.241 20.4214 87.1276 20.4036 87.0247 20.3679C86.9285 20.325 86.8291 20.2822 86.7258 20.2393C86.6296 20.1893 86.5267 20.1465 86.4168 20.1107C86.3069 20.0679 86.1799 20.0465 86.0357 20.0465C85.9188 20.0465 85.7781 20.0536 85.6133 20.0679C85.4485 20.0822 85.2801 20.0893 85.1082 20.0893C84.8748 20.0893 84.7065 20.0715 84.6036 20.0358C84.5008 20 84.4287 19.9465 84.3874 19.875C84.346 19.8036 84.3153 19.7143 84.2946 19.6072C84.281 19.5 84.2432 19.375 84.1812 19.2322C84.1469 19.175 84.0955 19.1179 84.0265 19.0608C83.9579 19.0036 83.8964 18.9322 83.8414 18.8465C83.7865 18.7536 83.7416 18.6679 83.7074 18.5893C83.6797 18.5107 83.6489 18.4393 83.6146 18.375C83.5869 18.3036 83.5496 18.2358 83.5012 18.1714C83.4599 18.1072 83.3984 18.0393 83.3157 17.9679C83.2335 17.9036 83.1649 17.85 83.11 17.8072C83.0616 17.7643 83.0173 17.7215 82.9759 17.6786C82.9346 17.6358 82.8902 17.5857 82.8419 17.5286C82.8005 17.4715 82.7491 17.3893 82.6876 17.2822C82.5777 17.1322 82.4779 16.9679 82.3887 16.7893C82.2994 16.6107 82.1997 16.4322 82.0898 16.2536C81.9733 16.075 81.8357 15.9215 81.6779 15.7929C81.5197 15.6571 81.3997 15.5179 81.317 15.375C81.2485 15.2679 81.1834 15.15 81.1214 15.0214C81.0665 14.8858 81.0115 14.7465 80.9566 14.6036C80.9087 14.4536 80.8603 14.3072 80.8124 14.1643C80.7645 14.0143 80.7126 13.875 80.6577 13.7465C80.6783 14.3107 80.6854 14.8786 80.6784 15.45C80.6718 16.0214 80.6854 16.5893 80.7197 17.1536C80.7333 17.3964 80.7575 17.6214 80.7918 17.8286C80.8331 18.0286 80.8537 18.25 80.8537 18.4929C80.8537 18.7 80.8194 18.9429 80.7504 19.2214C80.6819 19.4929 80.6304 19.7893 80.5961 20.1107C80.5685 20.3536 80.5478 20.5607 80.5342 20.7322C80.5276 20.9036 80.4964 21.0464 80.4414 21.1607C80.3865 21.2679 80.2972 21.3465 80.1737 21.3964C80.0502 21.4464 79.8612 21.4715 79.6071 21.4715C79.5315 21.4715 79.4458 21.4643 79.3496 21.45C79.2533 21.4429 79.157 21.4286 79.0612 21.4072C78.9715 21.3857 78.8858 21.3643 78.8036 21.3429C78.728 21.3215 78.6731 21.3 78.6388 21.2786C78.6045 21.2571 78.5667 21.1929 78.5254 21.0857C78.4841 20.9714 78.4361 20.875 78.3812 20.7964C78.3192 20.725 78.2643 20.6608 78.2164 20.6036C78.168 20.5465 78.1271 20.4822 78.0924 20.4107C78.0581 20.3393 78.0309 20.2536 78.0102 20.1536C77.9896 20.0465 77.9794 19.9107 77.9794 19.7465C77.9794 19.3893 78.0001 19.0214 78.041 18.6429C78.0823 18.2572 78.103 17.8929 78.103 17.55C78.103 17.4072 78.0788 17.2286 78.0309 17.0143C77.9825 16.8 77.9588 16.5822 77.9588 16.3607C77.9588 16.075 77.9623 15.7964 77.9689 15.525C77.9759 15.2465 77.9794 14.9714 77.9794 14.7C77.9794 14.2072 77.9553 13.725 77.9074 13.2536C77.859 12.775 77.8353 12.3036 77.8353 11.8393C77.8353 11.6608 77.8524 11.4965 77.8867 11.3465C77.928 11.1964 77.9689 11.0465 78.0102 10.8965C78.0581 10.7393 78.0995 10.5714 78.1337 10.3929C78.1751 10.2143 78.1957 10.0036 78.1957 9.76074C78.1957 9.66789 78.1887 9.57505 78.1751 9.48215C78.168 9.38931 78.1649 9.30003 78.1649 9.21431C78.1649 8.75004 78.292 8.40362 78.546 8.17505C78.8071 7.94648 79.154 7.83219 79.5865 7.83219C79.7786 7.83219 79.9953 7.85358 80.2357 7.89646C80.4757 7.9393 80.706 7.99288 80.9258 8.05715C81.1522 8.12147 81.3518 8.19644 81.5232 8.28215C81.7016 8.36074 81.8221 8.44289 81.8841 8.5286C81.9456 8.60718 81.9869 8.72147 82.0076 8.87146C82.0348 9.02145 82.0863 9.15717 82.1619 9.27859C82.2445 9.42145 82.3474 9.55004 82.4709 9.66433C82.6014 9.77143 82.6942 9.86789 82.7491 9.95361C82.7834 10.0107 82.8076 10.0965 82.8212 10.2107C82.8353 10.3179 82.8731 10.4393 82.9346 10.575C82.983 10.675 83.0581 10.7822 83.1614 10.8965C83.2713 11.0107 83.3742 11.1286 83.4704 11.25C83.5526 11.3572 83.6282 11.475 83.6968 11.6036C83.7658 11.7322 83.8379 11.8429 83.9135 11.9357C84.099 12.15 84.2911 12.3429 84.4902 12.5143C84.6964 12.6857 84.8748 12.8715 85.026 13.0715C85.143 13.2358 85.2458 13.4072 85.3351 13.5857C85.4243 13.7643 85.5034 13.9286 85.572 14.0786C85.6476 14.2286 85.7126 14.3536 85.7676 14.4536C85.8225 14.5536 85.8775 14.6036 85.9324 14.6036C85.9874 14.6036 86.0221 14.5429 86.0357 14.4214C86.0493 14.2929 86.0564 14.1357 86.0564 13.95C86.0564 13.8143 86.0529 13.6679 86.0458 13.5107C86.0392 13.3536 86.0322 13.2036 86.0252 13.0608C86.0186 12.9107 86.0115 12.7786 86.0045 12.6643C85.9979 12.5429 85.9944 12.4536 85.9944 12.3964C85.9944 12.2822 86.0151 12.1607 86.0564 12.0322C86.1043 11.9036 86.1285 11.7465 86.1285 11.5607C86.1285 11.2679 86.1113 10.9643 86.077 10.65C86.0493 10.3357 86.0357 10.0179 86.0357 9.69646C86.0357 9.47502 86.0529 9.26433 86.0871 9.06433C86.1285 8.86433 86.1698 8.67502 86.2107 8.49646C86.259 8.31073 86.2999 8.13217 86.3342 7.96074C86.3755 7.78218 86.3962 7.60718 86.3962 7.43576C86.3962 7.25715 86.3825 7.09646 86.3548 6.95361C86.3342 6.81075 86.3104 6.67859 86.2827 6.55717C86.2555 6.42862 86.2278 6.31073 86.2005 6.20362C86.1799 6.08933 86.1698 5.97861 86.1698 5.87146C86.1698 5.75717 86.19 5.64645 86.2313 5.5393C86.2726 5.43219 86.3276 5.33573 86.3962 5.25002C86.4718 5.1643 86.561 5.09646 86.6638 5.04645C86.7737 4.99644 86.8977 4.97144 87.0348 4.97144C87.0625 4.97144 87.1381 4.98218 87.2616 5.00362C87.3922 5.01788 87.5258 5.07146 87.6634 5.1643C87.8076 5.25002 87.9346 5.38574 88.0445 5.57148C88.1544 5.75717 88.2093 6.01788 88.2093 6.35361C88.2093 6.49646 88.1992 6.64289 88.1786 6.79288C88.1579 6.94291 88.1478 7.11073 88.1478 7.29646C88.1478 7.63932 88.1579 7.97861 88.1786 8.31434C88.2058 8.64289 88.2335 8.9643 88.2608 9.27859C88.2951 9.58574 88.3227 9.88572 88.3434 10.1786C88.3707 10.4643 88.3847 10.7322 88.3847 10.9822C88.3847 11.4107 88.3605 11.8286 88.3122 12.2358C88.2713 12.6358 88.2507 12.9786 88.2507 13.2643C88.2507 13.6858 88.2779 14.1179 88.3329 14.5607C88.3878 15.0036 88.4326 15.4143 88.4669 15.7929ZM100.119 11.0036C100.07 11.6465 100.019 12.2893 99.9641 12.9322C99.9162 13.575 99.8819 14.1786 99.8612 14.7429C99.8476 14.9286 99.8199 15.0893 99.7786 15.225C99.7377 15.3536 99.717 15.5 99.717 15.6643C99.717 15.7929 99.7236 15.925 99.7377 16.0608C99.7513 16.1893 99.7584 16.325 99.7584 16.4679C99.7584 16.8679 99.7205 17.2214 99.6449 17.5286C99.5764 17.8286 99.4867 18.1 99.3768 18.3429C99.2669 18.5857 99.1434 18.8036 99.0063 18.9964C98.8687 19.1893 98.7381 19.3714 98.6146 19.5429C98.5118 19.6858 98.4085 19.8286 98.3056 19.9715C98.2023 20.1143 98.0652 20.2429 97.8933 20.3572C97.859 20.3929 97.7975 20.4179 97.7082 20.4322C97.6256 20.4393 97.5399 20.4643 97.4507 20.5072C97.3751 20.5429 97.3166 20.5929 97.2753 20.6572C97.234 20.7143 97.1825 20.7536 97.121 20.775C97.0247 20.8107 96.8564 20.8536 96.6159 20.9036C96.3755 20.9465 96.1249 20.9964 95.8638 21.0536C95.6027 21.1036 95.3658 21.1643 95.1531 21.2358C94.9403 21.3 94.8133 21.3714 94.772 21.45C94.8133 21.5786 94.8406 21.7143 94.8542 21.8572C94.8748 22 94.9025 22.1322 94.9368 22.2536C94.9781 22.375 95.0362 22.475 95.1118 22.5536C95.1944 22.6393 95.3144 22.6822 95.4726 22.6822C95.6027 22.6822 95.7368 22.6608 95.8744 22.6179C96.0186 22.5822 96.1522 22.5393 96.2761 22.4893C96.3997 22.4393 96.506 22.3929 96.5953 22.35C96.6915 22.3072 96.7601 22.2786 96.8014 22.2643C96.9043 22.2358 97.0313 22.1964 97.1825 22.1465C97.3337 22.1036 97.4849 22.0608 97.6357 22.0179C97.7869 21.975 97.9311 21.9393 98.0687 21.9107C98.2129 21.8822 98.3263 21.8679 98.4085 21.8679C98.5526 21.8679 98.6832 21.9143 98.8001 22.0072C98.917 22.1072 99.0129 22.2429 99.0885 22.4143C99.1711 22.5857 99.2326 22.7857 99.274 23.0143C99.3153 23.25 99.3359 23.5036 99.3359 23.775C99.3359 24.0965 99.3012 24.3929 99.2326 24.6643C99.1641 24.9429 99.0507 25.1393 98.8929 25.2536C98.8515 25.2822 98.7487 25.3215 98.5838 25.3714C98.4256 25.4214 98.2542 25.4715 98.0687 25.5215C97.8902 25.5715 97.7219 25.6143 97.5636 25.65C97.4058 25.6929 97.306 25.7143 97.2652 25.7143C97.114 25.7143 96.9214 25.6786 96.688 25.6072C96.4617 25.5429 96.2177 25.5107 95.9566 25.5107C95.7368 25.5107 95.5377 25.5179 95.3592 25.5322C95.1874 25.5465 95.0296 25.5536 94.8854 25.5536C94.6379 25.5536 94.3975 25.4965 94.1641 25.3822C93.9373 25.275 93.7346 25.1179 93.5562 24.9107C93.3777 24.7036 93.2335 24.4536 93.1236 24.1607C93.0137 23.875 92.9588 23.55 92.9588 23.1857C92.9588 23.1 92.9759 22.9929 93.0102 22.8643C93.0445 22.7357 93.0788 22.5964 93.1131 22.4465C93.1544 22.2965 93.1922 22.1429 93.2265 21.9857C93.2608 21.8358 93.2779 21.6965 93.2779 21.5679C93.2779 21.375 93.1992 21.2393 93.041 21.1607C92.8832 21.075 92.6907 21.0143 92.4643 20.9786C92.2445 20.9429 92.0142 20.9179 91.7742 20.9036C91.5403 20.8822 91.3447 20.8393 91.1869 20.775C91.0221 20.7107 90.881 20.6179 90.7645 20.4965C90.6546 20.375 90.5513 20.2358 90.4555 20.0786C90.3658 19.9215 90.2801 19.7465 90.1979 19.5536C90.1223 19.3607 90.0362 19.1607 89.9403 18.9536C89.8784 18.8107 89.8098 18.6358 89.7342 18.4286C89.6656 18.2214 89.6309 18.0072 89.6309 17.7857C89.6309 17.6358 89.6485 17.475 89.6827 17.3036C89.717 17.1322 89.7584 16.9572 89.8063 16.7786C89.8612 16.5929 89.9126 16.4036 89.9605 16.2107C90.0159 16.0179 90.0603 15.8214 90.0946 15.6214C90.1496 15.2358 90.1874 14.8358 90.208 14.4214C90.2357 14 90.2801 13.6072 90.3421 13.2429C90.3627 13.1572 90.3935 13.0715 90.4348 12.9857C90.4827 12.8929 90.517 12.7964 90.5377 12.6965C90.5926 12.4465 90.6304 12.175 90.6511 11.8822C90.6718 11.5893 90.6924 11.3036 90.7126 11.025C90.7333 10.7393 90.761 10.4715 90.7953 10.2214C90.8366 9.9643 90.9052 9.75004 91.0014 9.57861C91.0357 9.52147 91.0871 9.47146 91.1557 9.42858C91.2247 9.38574 91.2999 9.34647 91.3825 9.31073C91.4718 9.26789 91.561 9.22145 91.6502 9.17148C91.7395 9.12147 91.8256 9.06076 91.9078 8.98931C91.9627 8.9393 92.0076 8.88215 92.0419 8.81788C92.0762 8.74647 92.1038 8.67502 92.1241 8.60362C92.1518 8.53217 92.179 8.46433 92.2067 8.40001C92.234 8.33573 92.2682 8.28216 92.3096 8.23932C92.3438 8.19644 92.4023 8.16074 92.4849 8.13217C92.5742 8.10359 92.6427 8.06789 92.6907 8.02501C92.7663 7.96074 92.8146 7.90003 92.8353 7.84289C92.8625 7.77861 92.9038 7.7286 92.9588 7.6929C93.1166 7.60001 93.3263 7.52147 93.5869 7.45719C93.8551 7.39287 94.1161 7.31073 94.3702 7.21075C94.6172 7.11073 94.8441 6.99288 95.0502 6.85715C95.263 6.72147 95.452 6.61432 95.6168 6.53573C95.706 6.51429 95.8159 6.50716 95.9465 6.51429C96.077 6.52147 96.2071 6.50716 96.3377 6.47146C96.4203 6.45002 96.4924 6.42862 96.554 6.40718C96.623 6.38574 96.6915 6.36787 96.7601 6.35361C96.8291 6.33217 96.9043 6.31434 96.9869 6.30003C97.0761 6.28572 97.1825 6.27502 97.306 6.26789C97.3201 6.26789 97.3373 6.2572 97.3579 6.23576C97.3852 6.21432 97.4159 6.20362 97.4507 6.20362C97.5399 6.20362 97.6463 6.22501 97.7698 6.26789C97.9003 6.3036 98.0274 6.35004 98.1509 6.40718C98.2748 6.46433 98.3878 6.52503 98.4911 6.58931C98.601 6.64645 98.6832 6.70003 98.7381 6.75004C98.8001 6.80001 98.8551 6.86789 98.903 6.95361C98.9513 7.03219 98.9992 7.1179 99.0471 7.21075C99.1021 7.3036 99.157 7.40005 99.212 7.50003C99.2669 7.59288 99.3289 7.67859 99.3975 7.75717C99.5144 7.8929 99.6414 8.00001 99.7786 8.07859C99.9161 8.15717 100.005 8.23575 100.047 8.31434C100.102 8.41431 100.139 8.56074 100.16 8.75361C100.187 8.94648 100.201 9.15717 100.201 9.38574C100.201 9.65715 100.191 9.94286 100.17 10.2429C100.157 10.5357 100.139 10.7893 100.119 11.0036ZM96.8014 14.6036C96.7878 14.4822 96.7636 14.3679 96.7293 14.2608C96.6951 14.1536 96.6608 14.0429 96.6265 13.9286C96.5918 13.8143 96.5575 13.6929 96.5232 13.5643C96.4959 13.4286 96.4819 13.2715 96.4819 13.0929C96.4819 12.85 96.4546 12.6465 96.3997 12.4822C96.3447 12.3179 96.2797 12.175 96.2041 12.0536C96.1285 11.9322 96.0529 11.8179 95.9773 11.7107C95.9016 11.6036 95.8467 11.4857 95.8124 11.3572C95.7645 11.1929 95.7333 10.9822 95.7197 10.725C95.706 10.4679 95.6854 10.2179 95.6577 9.97505C95.6304 9.72504 95.5825 9.51434 95.5135 9.34291C95.452 9.1643 95.3452 9.07502 95.1944 9.07502C94.8234 9.07502 94.5245 9.15717 94.2981 9.32147C94.0783 9.48572 93.9065 9.70716 93.783 9.98574C93.666 10.2643 93.5838 10.5893 93.5355 10.9607C93.4876 11.325 93.4498 11.7107 93.4225 12.1179C93.4019 12.525 93.3812 12.9429 93.3605 13.3714C93.3399 13.8001 93.292 14.2107 93.2164 14.6036C93.2027 14.6536 93.1786 14.7215 93.1443 14.8072C93.1166 14.8929 93.0823 14.9822 93.041 15.075C93.0067 15.1679 92.9724 15.2571 92.9381 15.3429C92.9038 15.4286 92.8832 15.4965 92.8762 15.5465C92.8625 15.6107 92.8419 15.7286 92.8146 15.9C92.7869 16.0715 92.7597 16.275 92.732 16.5107C92.7047 16.7393 92.677 16.9929 92.6498 17.2715C92.6291 17.5429 92.6186 17.8107 92.6186 18.075C92.6186 18.2465 92.6357 18.3786 92.6704 18.4715C92.7047 18.5572 92.7526 18.6322 92.8146 18.6965C92.8761 18.7536 92.9452 18.8036 93.0203 18.8465C93.103 18.8893 93.1887 18.9465 93.2779 19.0179C93.3948 19.1179 93.5118 19.2107 93.6282 19.2965C93.7522 19.375 93.8823 19.4143 94.0199 19.4143C94.1504 19.4143 94.3082 19.3893 94.4937 19.3393C94.6858 19.2893 94.8748 19.2286 95.0603 19.1572C95.2458 19.0857 95.4142 19.0107 95.5649 18.9322C95.7161 18.8536 95.8195 18.7857 95.8744 18.7286C95.9566 18.65 96.0221 18.5143 96.07 18.3215C96.1179 18.1215 96.2071 17.9 96.3377 17.6571C96.386 17.55 96.4375 17.4608 96.4924 17.3893C96.5474 17.3179 96.5988 17.2465 96.6467 17.175C96.6951 17.1036 96.7329 17.025 96.7601 16.9393C96.7878 16.8465 96.8014 16.7286 96.8014 16.5857C96.8014 16.4214 96.7913 16.2429 96.7707 16.05C96.75 15.8572 96.7394 15.6679 96.7394 15.4822C96.7394 15.3536 96.75 15.2179 96.7707 15.075C96.7913 14.9322 96.8014 14.8072 96.8014 14.7V14.6036ZM110.555 14.7429V14.8715C110.555 15.0715 110.545 15.2893 110.524 15.525C110.503 15.7536 110.493 15.9679 110.493 16.1679C110.493 16.2893 110.496 16.4143 110.503 16.5429C110.51 16.6643 110.514 16.7857 110.514 16.9072C110.514 17.0572 110.496 17.1964 110.462 17.325C110.428 17.4465 110.386 17.5679 110.339 17.6893C110.29 17.8036 110.236 17.925 110.174 18.0536C110.119 18.175 110.07 18.3143 110.03 18.4715C109.995 18.6001 109.964 18.7322 109.937 18.8679C109.916 18.9964 109.896 19.125 109.875 19.2536C109.854 19.3822 109.83 19.5036 109.803 19.6179C109.782 19.725 109.751 19.8179 109.71 19.8965C109.6 20.125 109.439 20.3357 109.226 20.5286C109.013 20.7215 108.793 20.8893 108.567 21.0322C108.347 21.1679 108.148 21.275 107.969 21.3536C107.79 21.4322 107.677 21.4715 107.629 21.4715C107.478 21.4715 107.327 21.4572 107.176 21.4286C107.031 21.4 106.881 21.3857 106.722 21.3857C106.434 21.3857 106.139 21.4107 105.837 21.4608C105.541 21.5179 105.246 21.5465 104.95 21.5465C104.765 21.5465 104.6 21.5286 104.456 21.4929C104.319 21.4643 104.168 21.4072 104.003 21.3215C103.838 21.2358 103.645 21.1179 103.426 20.9679C103.213 20.8107 102.938 20.6072 102.601 20.3572C102.437 20.2358 102.292 20.1322 102.169 20.0465C102.052 19.9536 101.949 19.8393 101.86 19.7036C101.771 19.5679 101.692 19.3893 101.623 19.1679C101.554 18.9465 101.489 18.6465 101.427 18.2679C101.427 18.2322 101.424 18.2001 101.417 18.1714C101.41 18.1429 101.407 18.1107 101.407 18.075C101.407 17.9607 101.413 17.85 101.427 17.7429C101.441 17.6286 101.448 17.5107 101.448 17.3893C101.448 17.2679 101.43 17.1572 101.396 17.0572C101.362 16.95 101.324 16.8465 101.283 16.7465C101.242 16.6465 101.204 16.55 101.169 16.4571C101.135 16.3643 101.115 16.2679 101.108 16.1679C101.108 16.1107 101.128 16.025 101.169 15.9107C101.211 15.7964 101.231 15.6822 101.231 15.5679V15.2036C101.231 15.1107 101.245 15.025 101.273 14.9465C101.3 14.8679 101.331 14.7929 101.365 14.7215C101.407 14.6429 101.441 14.5643 101.468 14.4858C101.496 14.4 101.51 14.3072 101.51 14.2072C101.51 13.9786 101.482 13.75 101.427 13.5215C101.379 13.2858 101.355 13.0536 101.355 12.825C101.355 12.6322 101.403 12.425 101.499 12.2036C101.595 11.975 101.681 11.7143 101.757 11.4214C101.812 11.2143 101.853 10.9929 101.881 10.7572C101.915 10.5143 101.959 10.2822 102.014 10.0608C102.09 9.75361 102.172 9.45358 102.262 9.16074C102.351 8.86789 102.444 8.5393 102.54 8.17505C102.574 8.03219 102.615 7.90003 102.663 7.77861C102.711 7.65002 102.735 7.53573 102.735 7.43576C102.735 7.35717 102.728 7.28216 102.715 7.21075C102.701 7.13217 102.694 7.06076 102.694 6.99644C102.694 6.88215 102.749 6.77505 102.859 6.67502C102.969 6.56787 103.124 6.51429 103.323 6.51429C103.515 6.51429 103.697 6.55361 103.869 6.63219C104.047 6.7036 104.202 6.79644 104.332 6.91073C104.47 7.02501 104.576 7.15361 104.652 7.29646C104.734 7.43219 104.775 7.5643 104.775 7.6929C104.775 7.80718 104.765 7.9393 104.744 8.08933C104.724 8.23219 104.696 8.37505 104.662 8.5179C104.634 8.66076 104.604 8.80001 104.569 8.93573C104.542 9.06433 104.521 9.17148 104.507 9.25715C104.432 9.67146 104.356 10.0965 104.281 10.5322C104.212 10.9679 104.147 11.4107 104.085 11.8608C104.03 12.3036 103.986 12.7572 103.951 13.2214C103.917 13.6786 103.903 14.1393 103.91 14.6036C103.91 15.075 103.931 15.55 103.972 16.0286C103.986 16.1429 103.992 16.2715 103.992 16.4143C103.992 16.5572 103.992 16.7 103.992 16.8429C103.999 16.9857 104.009 17.1179 104.023 17.2393C104.037 17.3607 104.064 17.4572 104.106 17.5286C104.133 17.5786 104.202 17.6358 104.312 17.7C104.429 17.7643 104.569 17.8286 104.734 17.8929C104.899 17.95 105.074 18 105.259 18.0429C105.445 18.0786 105.623 18.0965 105.795 18.0965C106.042 18.0965 106.221 18.0465 106.331 17.9465C106.448 17.8465 106.527 17.7143 106.568 17.55C106.609 17.3786 106.626 17.1857 106.619 16.9714C106.612 16.75 106.616 16.525 106.63 16.2965C106.644 16.025 106.674 15.7607 106.722 15.5036C106.777 15.2465 106.798 15.0143 106.784 14.8072C106.771 14.5429 106.726 14.25 106.65 13.9286C106.575 13.6 106.527 13.2643 106.506 12.9215C106.506 12.8 106.517 12.6786 106.537 12.5572C106.557 12.4286 106.568 12.3072 106.568 12.1929C106.568 12.1 106.561 11.9857 106.547 11.85C106.54 11.7143 106.53 11.5679 106.517 11.4107C106.503 11.2465 106.489 11.0786 106.475 10.9072C106.468 10.7286 106.465 10.55 106.465 10.3715C106.465 9.92147 106.513 9.55717 106.609 9.27859C106.712 9.00005 106.918 8.86076 107.227 8.86076C107.33 8.86076 107.444 8.86789 107.567 8.88215C107.691 8.89646 107.815 8.91073 107.938 8.92504C108.055 8.92504 108.189 8.91429 108.34 8.8929C108.491 8.87146 108.639 8.86076 108.783 8.86076C108.872 8.86076 108.979 8.88577 109.102 8.93573C109.226 8.98574 109.346 9.06076 109.463 9.16074C109.586 9.26076 109.696 9.39287 109.793 9.55717C109.895 9.72147 109.975 9.91434 110.03 10.1357C110.07 10.3286 110.095 10.5393 110.102 10.7679C110.108 10.9964 110.129 11.2143 110.163 11.4214C110.204 11.6643 110.249 11.9072 110.297 12.15C110.346 12.3929 110.369 12.6179 110.369 12.825C110.369 12.9607 110.366 13.0965 110.359 13.2322C110.352 13.3607 110.349 13.4893 110.349 13.6179C110.349 13.8465 110.38 14.0429 110.441 14.2072C110.503 14.3643 110.541 14.5429 110.555 14.7429ZM122.763 18.4929C122.743 18.5572 122.708 18.6143 122.66 18.6643C122.612 18.7143 122.581 18.775 122.567 18.8465C122.54 18.9393 122.523 19.0358 122.516 19.1357C122.509 19.2286 122.495 19.3215 122.474 19.4143C122.461 19.5072 122.437 19.5964 122.402 19.6822C122.368 19.7679 122.313 19.8465 122.237 19.9179C122.155 19.9964 122.038 20.0608 121.887 20.1107C121.736 20.1607 121.572 20.2072 121.393 20.25C121.221 20.2929 121.046 20.3357 120.867 20.3786C120.696 20.4214 120.545 20.4715 120.414 20.5286C120.311 20.5786 120.212 20.65 120.115 20.7429C120.019 20.8286 119.92 20.9215 119.816 21.0214C119.714 21.1143 119.604 21.2036 119.487 21.2893C119.377 21.375 119.25 21.4358 119.106 21.4715C119.003 21.5072 118.872 21.5322 118.714 21.5465C118.556 21.5679 118.408 21.5893 118.271 21.6107C118.134 21.6393 117.969 21.6679 117.777 21.6965C117.591 21.7322 117.389 21.7643 117.169 21.7929C116.956 21.8286 116.733 21.8572 116.499 21.8786C116.273 21.9 116.053 21.9107 115.84 21.9107C115.62 21.9107 115.445 21.8929 115.314 21.8572C115.191 21.8286 115.085 21.7893 114.995 21.7393C114.906 21.6893 114.82 21.6322 114.738 21.5679C114.655 21.5107 114.552 21.4572 114.429 21.4072C114.236 21.3429 114.041 21.3 113.841 21.2786C113.642 21.2571 113.443 21.225 113.244 21.1822C113.045 21.1393 112.845 21.0715 112.646 20.9786C112.447 20.8858 112.251 20.7357 112.059 20.5286C112.038 20.5072 112.018 20.4715 111.997 20.4214C111.976 20.3643 111.956 20.3036 111.935 20.2393C111.915 20.175 111.894 20.1143 111.874 20.0571C111.853 20 111.832 19.9536 111.812 19.9179C111.743 19.8179 111.664 19.7357 111.575 19.6715C111.492 19.6 111.413 19.5322 111.338 19.4679C111.269 19.3964 111.211 19.3179 111.163 19.2322C111.115 19.1465 111.091 19.0393 111.091 18.9107C111.091 18.8179 111.121 18.7215 111.183 18.6214C111.245 18.5143 111.321 18.4179 111.41 18.3322C111.499 18.2465 111.595 18.175 111.699 18.1179C111.801 18.0608 111.894 18.0322 111.976 18.0322H112.131C112.22 18.0322 112.292 18.0072 112.347 17.9572C112.409 17.9072 112.457 17.8465 112.492 17.775C112.526 17.7036 112.55 17.625 112.564 17.5393C112.584 17.4536 112.595 17.375 112.595 17.3036C112.595 17.1536 112.581 16.9822 112.554 16.7893C112.533 16.5964 112.523 16.375 112.523 16.125C112.523 16.0036 112.526 15.8822 112.533 15.7607C112.546 15.6322 112.554 15.5107 112.554 15.3964C112.554 15.2179 112.529 15.0679 112.481 14.9465C112.44 14.825 112.413 14.6965 112.399 14.5607C112.364 14.2322 112.337 13.8715 112.317 13.4786C112.303 13.0857 112.296 12.6786 112.296 12.2572C112.296 12.0643 112.303 11.8643 112.317 11.6571C112.33 11.45 112.344 11.2465 112.358 11.0465C112.372 10.8465 112.385 10.6572 112.399 10.4786C112.413 10.2929 112.419 10.1322 112.419 9.99644C112.419 9.91073 112.365 9.84289 112.255 9.79287C112.152 9.74291 112.038 9.67859 111.915 9.60001C111.791 9.52147 111.674 9.41431 111.565 9.27859C111.462 9.13573 111.41 8.9286 111.41 8.65719C111.41 8.37148 111.506 8.10716 111.699 7.86433C111.898 7.62145 112.138 7.41075 112.419 7.23219C112.701 7.04645 113 6.9036 113.316 6.80362C113.632 6.69646 113.91 6.64289 114.15 6.64289C114.562 6.64289 114.992 6.67859 115.438 6.75004C115.885 6.82145 116.334 6.85715 116.788 6.85715C116.877 6.85715 116.98 6.84645 117.097 6.82501C117.213 6.79644 117.344 6.76787 117.488 6.7393C117.639 6.71073 117.804 6.68572 117.983 6.66433C118.161 6.63576 118.361 6.62145 118.58 6.62145C118.717 6.62145 118.827 6.63932 118.91 6.67502C118.992 6.71073 119.068 6.75717 119.137 6.81432C119.212 6.86433 119.284 6.92503 119.353 6.99644C119.429 7.06076 119.525 7.12503 119.641 7.18931C119.717 7.23219 119.81 7.26433 119.92 7.28577C120.03 7.30716 120.126 7.34291 120.208 7.39288C120.304 7.43576 120.39 7.48572 120.466 7.54286C120.541 7.59288 120.61 7.62862 120.672 7.65002C120.905 7.73573 121.115 7.79288 121.3 7.82145C121.492 7.85002 121.654 7.89646 121.784 7.96074C121.915 8.01788 122.014 8.11429 122.083 8.25002C122.152 8.37861 122.186 8.58218 122.186 8.86076C122.186 9.25358 122.141 9.55361 122.052 9.76074C121.97 9.96787 121.843 10.1215 121.671 10.2214C121.499 10.3143 121.286 10.375 121.032 10.4036C120.778 10.4322 120.483 10.4643 120.146 10.5C119.844 10.5357 119.545 10.5643 119.25 10.5857C118.961 10.6072 118.649 10.6179 118.312 10.6179C117.907 10.6179 117.457 10.5929 116.963 10.5429C116.468 10.4858 115.974 10.4571 115.479 10.4571C115.349 10.4571 115.242 10.4608 115.16 10.4679C115.077 10.475 115.012 10.5 114.964 10.5429C114.923 10.5857 114.892 10.6536 114.871 10.7465C114.858 10.8393 114.851 10.9714 114.851 11.1429C114.851 11.2643 114.854 11.3893 114.861 11.5179C114.875 11.6465 114.888 11.7679 114.903 11.8822C114.916 11.9964 114.93 12.0929 114.943 12.1714C114.964 12.25 114.981 12.3 114.995 12.3215C115.057 12.3929 115.177 12.45 115.356 12.4929C115.534 12.5286 115.73 12.5572 115.943 12.5786C116.156 12.5929 116.365 12.6036 116.572 12.6107C116.784 12.6107 116.956 12.6107 117.086 12.6107C117.244 12.6107 117.385 12.5929 117.509 12.5572C117.639 12.5215 117.76 12.4822 117.87 12.4393C117.986 12.3893 118.092 12.3465 118.189 12.3107C118.292 12.275 118.395 12.2572 118.498 12.2572C118.608 12.2572 118.69 12.2679 118.745 12.2893C118.807 12.3107 118.855 12.3393 118.889 12.375C118.924 12.4036 118.948 12.4358 118.961 12.4715C118.982 12.5 119.009 12.525 119.044 12.5465C119.126 12.6036 119.191 12.6536 119.24 12.6965C119.288 12.7393 119.325 12.7857 119.353 12.8358C119.38 12.8858 119.397 12.95 119.405 13.0286C119.418 13.1 119.425 13.1964 119.425 13.3179C119.425 13.725 119.397 14.0393 119.343 14.2608C119.288 14.4822 119.174 14.65 119.003 14.7643C118.838 14.8715 118.601 14.9429 118.292 14.9786C117.99 15.0072 117.588 15.0286 117.086 15.0429C116.901 15.05 116.75 15.0608 116.633 15.075C116.517 15.0822 116.427 15.1036 116.365 15.1393C116.303 15.1679 116.259 15.2107 116.231 15.2679C116.211 15.325 116.201 15.4036 116.201 15.5036C116.201 15.8393 116.197 16.1215 116.19 16.35C116.19 16.5714 116.218 16.7536 116.273 16.8965C116.328 17.0322 116.427 17.1322 116.572 17.1964C116.716 17.2536 116.935 17.2822 117.231 17.2822C117.457 17.2822 117.691 17.2715 117.931 17.25C118.172 17.2286 118.412 17.2036 118.652 17.175C118.893 17.1393 119.126 17.1 119.353 17.0572C119.586 17.0143 119.806 16.9714 120.012 16.9286C120.184 16.8929 120.342 16.8465 120.486 16.7893C120.63 16.7322 120.768 16.6786 120.898 16.6286C121.036 16.5714 121.173 16.525 121.31 16.4893C121.448 16.4465 121.592 16.425 121.743 16.425C122.114 16.425 122.396 16.5357 122.588 16.7572C122.787 16.9786 122.887 17.3 122.887 17.7215C122.887 17.8429 122.876 17.9715 122.855 18.1072C122.835 18.2429 122.804 18.3715 122.763 18.4929Z" fill="#4F4F4F"/>
</svg>
