<svg width="100" height="28" viewBox="0 0 100 28" fill="none" xmlns="http://www.w3.org/2000/svg">
<path d="M11.0977 5.73633L10.25 10.3164L12.4512 18.5469C12.1504 19.7044 11.5807 20.7435 10.7422 21.6641C9.91276 22.5846 8.91016 23.2454 7.73438 23.6465C7.54297 23.6738 7.34701 23.6875 7.14648 23.6875C6.48112 23.6875 5.76562 23.6055 5 23.4414C4.24349 23.2773 3.56901 23.0677 2.97656 22.8125C2.38411 22.5573 1.98763 22.3021 1.78711 22.0469C1.76888 21.8099 1.75977 21.6413 1.75977 21.541C1.75977 21.2493 1.81901 20.8392 1.9375 20.3105C2.05599 19.7819 2.21549 19.276 2.41602 18.793C2.61654 18.3008 2.83529 17.9453 3.07227 17.7266C3.48242 17.9727 4.07487 18.3555 4.84961 18.875C5.54232 19.3307 6.09375 19.6862 6.50391 19.9414C6.92318 20.1966 7.2194 20.3561 7.39258 20.4199L6.50391 11.5742L6.54492 5.64062L4.74023 5.42188V8.375L2.4707 8.86719C2.18815 8.57552 1.89648 8.15625 1.5957 7.60938C1.30404 7.05339 1.05794 6.45182 0.857422 5.80469C0.666016 5.14844 0.570312 4.52865 0.570312 3.94531C0.570312 3.24349 0.702474 2.64193 0.966797 2.14062C1.24023 1.63021 1.60482 1.2474 2.06055 0.992188C2.51628 0.727865 3.02214 0.595703 3.57812 0.595703C4.0612 0.595703 4.65365 0.691406 5.35547 0.882812C6.05729 1.0651 6.74544 1.30208 7.41992 1.59375C8.0944 1.8763 8.64128 2.1543 9.06055 2.42773C9.4069 1.9082 9.83984 1.43424 10.3594 1.00586C10.888 0.577474 11.4577 0.349609 12.0684 0.322266C12.5697 0.695964 12.9798 1.26562 13.2988 2.03125C13.6178 2.79688 13.7773 3.57617 13.7773 4.36914C13.7773 4.9069 13.7044 5.3763 13.5586 5.77734C13.431 5.85026 13.2578 5.90951 13.0391 5.95508C12.8294 5.99154 12.6107 6.00977 12.3828 6.00977C11.8177 6.00977 11.4121 5.91862 11.166 5.73633H11.0977ZM28.1602 2.82422C29.3906 8.92188 30.2018 13.1693 30.5938 15.5664C30.9948 17.9544 31.1953 19.5586 31.1953 20.3789C31.1953 20.543 31.1862 20.7617 31.168 21.0352C30.375 21.5273 29.4225 21.7734 28.3105 21.7734C27.6178 21.7734 26.9661 21.6732 26.3555 21.4727C25.7539 21.2721 25.2936 21.0033 24.9746 20.666L26.082 16.9473L25.8223 15.7578H25.084C23.9538 15.694 22.7962 15.612 21.6113 15.5117C21.4473 16.8698 21.265 17.9635 21.0645 18.793C20.8639 19.6224 20.5085 20.3288 19.998 20.9121C19.4967 21.4863 18.7858 21.7734 17.8652 21.7734C17.0632 21.7734 16.3203 21.5775 15.6367 21.1855C14.9531 20.7936 14.4837 20.2604 14.2285 19.5859L14.8438 17.3574L16.6484 17.5078L19.0273 5.54492C17.5781 5.3444 16.5299 5.12109 15.8828 4.875C15.9102 4.08203 16.0742 3.24349 16.375 2.35938C16.6849 1.47526 17.1042 0.796224 17.6328 0.322266C20.9961 0.878255 24.5052 1.71224 28.1602 2.82422ZM25.1113 12.5449L23.6895 6.03711L22.5137 5.94141C22.4681 6.73438 22.3906 7.76888 22.2812 9.04492C22.181 10.321 22.0625 11.5879 21.9258 12.8457L25.1113 12.5449ZM45.6738 16.0996C44.2884 8.06055 43.5957 3.34375 43.5957 1.94922C43.7051 1.71224 43.9329 1.48893 44.2793 1.2793C44.6257 1.06966 45.0358 0.905599 45.5098 0.787109C45.9837 0.659505 46.4577 0.595703 46.9316 0.595703C47.3236 0.595703 47.7383 0.650391 48.1758 0.759766C48.6133 0.860026 48.9642 1.0013 49.2285 1.18359L48.0527 16.7422C48.472 17.2526 48.7956 17.722 49.0234 18.1504C49.2513 18.5788 49.4199 19.0983 49.5293 19.709C49.2376 20.4108 48.7682 20.9349 48.1211 21.2812C47.4831 21.6185 46.7357 21.7871 45.8789 21.7871C45.1953 21.7871 44.4798 21.7005 43.7324 21.5273C42.9941 21.3633 42.4382 21.1309 42.0645 20.8301C42.0371 20.6751 42.0234 20.4746 42.0234 20.2285C42.0234 19.8639 42.0508 19.4902 42.1055 19.1074C42.1693 18.7155 42.2604 18.3965 42.3789 18.1504L36.4043 5.50391L36.3359 5.53125C36.5182 6.13281 36.8145 7.24479 37.2246 8.86719C37.6348 10.4805 38.0267 12.1576 38.4004 13.8984C38.7832 15.6393 39.0293 17.043 39.1387 18.1094C39.1569 18.3828 39.166 18.5879 39.166 18.7246C39.166 19.6452 38.929 20.3835 38.4551 20.9395C37.9902 21.4954 37.2611 21.7734 36.2676 21.7734C35.4473 21.7734 34.6862 21.5729 33.9844 21.1719C33.2826 20.7708 32.7721 20.2331 32.4531 19.5586L32.877 17.3301L34.3945 17.4531L34.2852 5.43555C33.8568 5.4082 33.4329 5.33984 33.0137 5.23047C32.6035 5.11198 32.2389 4.94792 31.9199 4.73828C31.9199 3.75391 32.0703 2.88346 32.3711 2.12695C32.681 1.37044 33.2552 0.76888 34.0938 0.322266C34.987 0.431641 36.0215 0.673177 37.1973 1.04688C38.373 1.42057 39.4121 1.92643 40.3145 2.56445L45.6191 16.1543L45.6738 16.0996ZM58.8672 23.1816C62.5677 22.9264 65.0742 22.7122 66.3867 22.5391C66.4961 22.8125 66.5508 23.1361 66.5508 23.5098C66.5508 23.9655 66.4733 24.4486 66.3184 24.959C66.1725 25.4694 65.972 25.9342 65.7168 26.3535C65.4616 26.7819 65.1882 27.0964 64.8965 27.2969C64.8236 27.4427 64.696 27.543 64.5137 27.5977C63.6478 27.4974 62.5039 27.2832 61.082 26.9551C59.6693 26.6361 58.4115 26.2669 57.3086 25.8477C56.707 26.6224 55.9779 27.0417 55.1211 27.1055C54.5378 26.7409 54.0775 26.1257 53.7402 25.2598C53.4121 24.403 53.2708 23.5007 53.3164 22.5527C53.7266 22.3249 54.0775 22.1471 54.3691 22.0195C54.6608 21.901 54.9707 21.819 55.2988 21.7734L56.0508 22.4434L58.0469 21.0898C56.8893 20.9349 55.832 20.7253 54.875 20.4609C53.918 20.1875 53.2344 19.8639 52.8242 19.4902C52.5599 17.8132 52.3047 15.5755 52.0586 12.7773C51.8125 9.97005 51.6895 7.89648 51.6895 6.55664C51.6895 5.7819 51.7168 5.10286 51.7715 4.51953C51.8353 3.92708 51.972 3.49414 52.1816 3.2207C52.4915 2.81055 53.1068 2.38216 54.0273 1.93555C54.957 1.48893 55.9141 1.11068 56.8984 0.800781C57.8828 0.481771 58.5436 0.322266 58.8809 0.322266C59.3548 0.322266 60.1159 0.481771 61.1641 0.800781C62.2214 1.11068 63.2467 1.50716 64.2402 1.99023C65.2337 2.47331 65.931 2.95638 66.332 3.43945C66.4141 4.15951 66.4688 4.7474 66.4961 5.20312C66.5326 5.65885 66.5508 6.26042 66.5508 7.00781C66.5508 7.98307 66.487 9.30469 66.3594 10.9727C66.2318 12.6406 66.0723 14.2311 65.8809 15.7441C65.6895 17.2572 65.5117 18.3099 65.3477 18.9023C65.2474 19.3034 64.8236 19.7181 64.0762 20.1465C63.666 20.4199 63.1419 20.7116 62.5039 21.0215C61.8659 21.3314 61.0957 21.6914 60.1934 22.1016C59.8288 22.2656 59.5098 22.4115 59.2363 22.5391C58.9629 22.6758 58.8216 22.7578 58.8125 22.7852L58.8672 23.1816ZM56.9395 10.7539C56.9395 13.4609 57.0033 15.5345 57.1309 16.9746C57.5501 17.2207 58.056 17.4714 58.6484 17.7266C59.2409 17.9818 59.7604 18.1549 60.207 18.2461L61.041 17.6719C61.1413 16.7422 61.1914 15.3477 61.1914 13.4883C61.1914 12.1576 61.1641 10.8314 61.1094 9.50977C61.0638 8.18815 61 7.08984 60.918 6.21484L58.0332 4.9707L57.0898 5.44922C56.9896 6.72526 56.9395 8.49349 56.9395 10.7539ZM84.2012 4.31445C84.3014 5.2168 84.3516 6.11458 84.3516 7.00781C84.3516 7.98307 84.2878 9.30469 84.1602 10.9727C84.0326 12.6406 83.873 14.2311 83.6816 15.7441C83.4902 17.2572 83.3125 18.3099 83.1484 18.9023C83.0664 19.2031 82.8477 19.4766 82.4922 19.7227C82.1458 19.9596 81.6764 20.224 81.084 20.5156C81.0293 20.543 80.9655 20.5749 80.8926 20.6113C80.8288 20.6387 80.7604 20.6706 80.6875 20.707C80.0221 21.0443 79.4479 21.2995 78.9648 21.4727C78.4818 21.6367 78.0033 21.7415 77.5293 21.7871C76.8548 21.7507 76.0664 21.6185 75.1641 21.3906C74.2617 21.1536 73.4095 20.8665 72.6074 20.5293C71.8145 20.1829 71.222 19.8366 70.8301 19.4902C70.5749 17.8678 70.3333 15.6849 70.1055 12.9414C69.8867 10.1888 69.7773 8.11523 69.7773 6.7207C69.7773 6.1556 69.7865 5.70898 69.8047 5.38086L67.8906 4.73828C67.9635 3.77214 68.1868 2.90625 68.5605 2.14062C68.9434 1.375 69.5723 0.76888 70.4473 0.322266C71.5501 0.458984 73.2227 1.38411 75.4648 3.09766L75.4238 3.125L75.4648 3.11133L75.123 5.44922L75.1094 10.7539C75.1094 13.6797 75.1777 15.8444 75.3145 17.248C76.3444 17.8496 77.4837 18.2279 78.7324 18.3828C78.7871 17.9089 78.8281 17.1979 78.8555 16.25C78.8828 15.3021 78.8965 14.3815 78.8965 13.4883C78.8965 12.112 78.8691 10.5807 78.8145 8.89453C78.7598 7.19922 78.6914 5.92773 78.6094 5.08008L76.3672 4.45117C76.4492 3.56706 76.7409 2.74674 77.2422 1.99023C77.7435 1.22461 78.4316 0.66862 79.3066 0.322266C79.7715 0.386068 80.4505 0.604818 81.3438 0.978516C82.237 1.35221 83.0983 1.77148 83.9277 2.23633L84.0918 3.42578V3.43945L84.1328 3.79492L84.2012 4.31445ZM97.6953 0.322266C98.1237 0.568359 98.4473 0.960286 98.666 1.49805C98.8848 2.03581 98.9941 2.63737 98.9941 3.30273C98.9941 4.05013 98.862 4.76562 98.5977 5.44922C98.3424 6.13281 97.9961 6.64323 97.5586 6.98047C96.8841 6.91667 96.1549 6.79362 95.3711 6.61133C94.5964 6.41992 93.3887 6.10091 91.748 5.6543L91.1465 5.49023L91.6797 9.86523C92.7188 9.74674 93.5801 9.62826 94.2637 9.50977C94.9473 9.39128 95.7904 9.22721 96.793 9.01758C96.8203 9.00846 97.1803 8.93099 97.873 8.78516C98.2376 9.34115 98.4199 10.0339 98.4199 10.8633C98.4199 11.4193 98.347 11.957 98.2012 12.4766C98.0553 12.987 97.8958 13.3333 97.7227 13.5156C97.4492 13.543 97.1758 13.5566 96.9023 13.5566C95.9635 13.5566 95.0475 13.4655 94.1543 13.2832C93.2702 13.1009 92.4818 12.8138 91.7891 12.4219L91.5977 17.2754L95.5215 17.4121L96.6426 14.8145L99.1035 15.0195C99.2402 15.3932 99.3587 15.972 99.459 16.7559C99.5684 17.5306 99.623 18.2324 99.623 18.8613C99.2585 19.5996 98.7799 20.224 98.1875 20.7344C97.6042 21.2357 96.9388 21.582 96.1914 21.7734C95.0065 21.737 93.5482 21.5957 91.8164 21.3496C90.0938 21.0944 88.7266 20.8346 87.7148 20.5703C86.9948 19.7135 86.571 18.8203 86.4434 17.8906L88.6035 12.1895L85.2812 4.20508C85.2812 3.61263 85.5046 2.97005 85.9512 2.27734C86.3978 1.57552 86.9173 1.01953 87.5098 0.609375L92.0625 1.60742L97.6953 0.322266Z" fill="#4F4F4F"/>
</svg>
