<svg width="44" height="32" viewBox="0 0 44 32" fill="none" xmlns="http://www.w3.org/2000/svg">
<path fill-rule="evenodd" clip-rule="evenodd" d="M43.8585 12.5346H44V12.682C43.9057 12.7803 43.8585 12.8786 43.8585 12.9769C43.7642 12.9769 43.5756 13.0261 43.2926 13.1244H42.7267C42.7267 13.0261 42.2551 12.682 41.3119 12.0921C40.3687 11.404 39.5198 10.8633 38.7653 10.47C37.9164 10.1751 37.1619 9.83105 36.5016 9.43781C35.8414 9.04456 35.1339 8.55301 34.3794 7.96314C33.5305 7.37327 32.8232 6.98003 32.2572 6.78341C31.597 6.58679 31.0783 6.19354 30.7009 5.60367L30.135 4.71887V4.57144H29.9936V4.42394H29.8521V4.2765H29.7106V4.12901H29.4277V3.98157H29.2862V3.83407H29.1447L29.2862 5.30874C29.3805 6.19354 29.522 6.73428 29.7106 6.9309C29.9936 7.02916 30.3237 7.17665 30.7009 7.37327C31.1725 7.5699 31.5027 7.91396 31.6913 8.40551C31.9743 8.89707 32.2572 9.192 32.5402 9.29031C32.7288 9.38862 32.8703 9.43781 32.9646 9.43781H33.1061L33.2476 9.58525L33.3891 9.73274H33.5305V9.88018H33.672V10.0277H33.3891L32.8232 10.1751C32.4459 10.2734 32.1158 10.3226 31.8328 10.3226C31.5499 10.3226 31.0311 10.3717 30.2765 10.47L29.2862 10.6175L29.1447 10.47L29.0032 10.3226H28.8617V10.0277C28.8617 9.83105 29.0032 9.63443 29.2862 9.43781L29.7106 9.14287V8.84794H29.5691L29.4277 8.70044C29.3333 8.60213 29.0504 8.4547 28.5788 8.25807C28.1072 8.06145 27.777 7.52071 27.5884 6.63597L27.164 5.45624V5.30874H27.0225L26.881 5.1613H26.5981V5.45624L26.4566 5.60367L26.3151 5.89861L25.6077 8.55301C25.1361 10.4209 24.5231 11.8956 23.7685 12.9769C23.1082 13.9601 22.448 14.9924 21.7878 16.0737C21.2219 17.0568 20.8446 17.7942 20.656 18.2857C20.4673 18.6789 20.373 19.0231 20.373 19.318V19.7604L20.2315 19.9079L20.09 20.0553H19.8071V19.318C19.8071 18.8264 19.9957 18.0891 20.373 17.106C20.7503 16.0246 21.269 14.9431 21.9293 13.8617C22.5895 12.7803 23.1082 11.6989 23.4855 10.6175L24.0515 8.84794V7.96314H23.2026L23.0611 8.11058L22.9196 8.25807H22.7781V8.40551H22.6366L22.2122 9.43781C21.9293 10.126 21.4105 11.5023 20.656 13.5668C19.9014 15.6313 19.0053 17.6468 17.9679 19.6129C16.9304 21.4808 15.8456 23.103 14.7138 24.4793C13.6763 25.659 12.7331 26.5438 11.8842 27.1336C11.0354 27.7235 10.0921 28.2151 9.05464 28.6083C8.11146 29.0015 7.59276 29.2473 7.49839 29.3456L7.35691 29.4931H7.07396V29.6405H6.93248V29.788H6.50805V29.9355V29.4931H6.64953V29.3456H6.79101V29.1982H6.93248V29.0507H7.07396V28.9032H7.21544V28.7557C7.30975 28.7557 8.25293 28.1167 10.045 26.8387C11.9313 25.4624 13.1104 24.5284 13.582 24.0369C14.1479 23.5453 14.8081 22.6114 15.5627 21.235C16.3172 19.8587 16.9775 18.5806 17.5434 17.4009C17.9207 16.3195 17.7792 15.3855 17.119 14.5991C16.3644 13.7143 15.7513 13.2719 15.2797 13.2719C14.9025 13.2719 14.478 13.3702 14.0064 13.5668C13.5349 13.7634 13.1576 14.1567 12.8746 14.7465C12.5916 15.3364 12.0729 16.9094 11.3183 19.4654L10.1865 23.1521L10.045 23.2996L9.90355 23.5945V24.0369H9.76208V24.1844H9.6206V23.5945L9.76208 23.1521L9.90355 22.7097V22.2673H9.76208V22.4148H9.6206V22.5622L9.47912 22.7097L9.33765 22.8571V23.0046H9.19617V23.1521H9.05464L8.48873 24.0369C8.01714 24.725 7.78134 25.0691 7.78134 25.0691H7.63987V25.2166H7.49839V25.364H6.93248L6.79101 25.5115L6.64953 25.659H6.36657V25.5115H6.50805V25.2166H6.64953V25.0691H6.79101V24.7742L6.93248 24.6267C7.0268 24.5284 7.49839 23.6436 8.34725 21.9723C9.19617 20.3011 9.71492 19.1705 9.90355 18.5806L10.1865 17.8433V17.2535H10.045V17.106H9.76208V17.2535H9.6206V17.5484H9.47912V17.6959H9.33765V17.9908L6.79101 22.7097C5.09323 25.8556 4.15001 27.5761 3.96142 27.871L3.67846 28.3134V28.4609H3.53698V28.6083H3.3955V28.9032H3.25402V29.0507H3.11254V29.3456H2.97106V29.4931L2.26366 30.083L1.41479 30.9678H1.27331V31.1152H1.13183V31.2627H0.990355V31.4101H0.848873V31.5576H0.707396L0.565919 31.7051L0.424436 31.8526H0.282959L0.141477 32H0V31.7051H0.282959V31.4101L0.424436 31.2627L0.565919 31.1152V30.9678H0.707396V30.8203C0.801714 30.8203 1.13183 30.3779 1.69775 29.4931C2.26366 28.51 2.97106 27.1336 3.81993 25.364L5.09323 22.8571L5.2347 22.7097L5.37618 22.5622V22.2673H5.51771V22.1198H5.65919V21.9723C5.65919 21.874 6.31942 20.4486 7.63987 17.6959C8.96032 14.9431 9.76208 13.3703 10.045 12.9769C10.4223 12.5837 10.7524 12.3871 11.0354 12.3871C11.4126 12.3871 11.7428 12.1413 12.0257 11.6498C12.3087 11.2565 12.7331 10.6175 13.2991 9.73274C13.865 8.84794 14.2422 8.3072 14.4309 8.11058L14.8553 7.96314H15.1383L15.5627 8.11058C15.7513 8.3072 16.223 8.89707 16.9775 9.88018C17.5434 10.8633 17.9207 11.5023 18.1093 11.7972C18.298 11.9938 18.4394 12.0921 18.5338 12.0921H18.6752V12.2396L18.8167 12.3871L18.9582 12.5346V12.682H19.5241V12.2396L20.5145 10.0277C21.1747 8.55301 21.6935 7.56984 22.0707 7.07834C22.5423 6.6851 23.0139 6.24273 23.4855 5.75117C24.0515 5.25961 24.806 4.32563 25.7492 2.94933C26.6924 1.57298 27.2583 0.78643 27.4469 0.589861C27.7299 0.393244 28.1072 0.196616 28.5788 0C29.0504 0 29.6163 0.245778 30.2765 0.737304C30.8424 1.22886 31.5027 1.7696 32.2572 2.35947C32.8232 3.04764 33.4362 3.83407 34.0964 4.71887C34.7567 5.70199 35.417 6.48847 36.0772 7.07834C36.8317 7.66821 37.9635 8.4547 39.4727 9.43781C40.9818 10.4209 42.0664 11.109 42.7267 11.5023C43.2926 12.0921 43.6227 12.3871 43.717 12.3871C43.8114 12.3871 43.8585 12.4363 43.8585 12.5346Z" fill="#F2994A"/>
</svg>
