<svg width="512" height="512" viewBox="0 0 512 512" fill="none" xmlns="http://www.w3.org/2000/svg">
<g clip-path="url(#clip0)">
<path fill-rule="evenodd" clip-rule="evenodd" d="M510.354 210.733H512V212.659C510.902 213.943 510.354 215.227 510.354 216.512C509.256 216.512 507.061 217.154 503.768 218.438H497.183C497.183 217.154 491.696 212.659 480.72 204.954C469.745 195.965 459.867 188.902 451.087 183.765C441.209 179.912 432.429 175.418 424.746 170.281C417.063 165.144 408.832 158.724 400.051 151.018C390.174 143.313 381.942 138.177 375.357 135.608C367.674 133.04 361.638 127.903 357.248 120.198L350.662 108.641V106.714H349.016V104.788H347.37V102.862H345.723V100.935H342.431V99.0092H340.785V97.0829H339.138L340.785 116.346C341.882 127.903 343.528 134.966 345.723 137.535C349.016 138.819 352.857 140.745 357.248 143.313C362.735 145.882 366.577 150.376 368.772 156.797C372.064 163.218 375.357 167.071 378.65 168.355C380.845 169.639 382.491 170.281 383.588 170.281H385.235L386.881 172.207L388.527 174.134H390.174V176.06H391.82V177.986H388.527L381.942 179.912C377.552 181.197 373.711 181.839 370.418 181.839C367.125 181.839 361.089 182.481 352.309 183.765L340.785 185.691L339.138 183.765L337.492 181.839H335.846V177.986C335.846 175.418 337.492 172.849 340.785 170.281L345.723 166.429V162.576H344.077L342.431 160.65C341.333 159.366 338.041 157.439 332.553 154.871C327.065 152.303 323.224 145.24 321.029 133.682L316.09 118.272V116.346H314.444L312.797 114.419H309.505V118.272L307.859 120.198L306.212 124.051L297.981 158.724C292.493 183.124 285.359 202.386 276.579 216.512C268.896 229.353 261.213 242.838 253.531 256.963C246.945 269.805 242.555 279.437 240.36 285.857C238.165 290.994 237.068 295.488 237.068 299.341V305.12L235.421 307.046L233.775 308.972H230.482V299.341C230.482 292.92 232.677 283.289 237.068 270.447C241.458 256.321 247.494 242.194 255.177 228.069C262.86 213.943 268.896 199.817 273.286 185.691L279.871 162.576V151.018H269.994L268.347 152.945L266.701 154.871H265.055V156.797H263.408L258.469 170.281C255.177 179.27 249.14 197.249 240.36 224.217C231.58 251.184 221.153 277.511 209.08 303.194C197.008 327.594 184.386 348.783 171.215 366.76C159.143 382.171 148.167 393.728 138.289 401.433C128.412 409.138 117.436 415.559 105.363 420.696C94.3879 425.833 88.3521 429.043 87.254 430.327L85.6077 432.253H82.3151V434.18H80.6688V436.106H75.7299V438.032V432.253H77.3762V430.327H79.0225V428.401H80.6688V426.475H82.3151V424.548H83.9614V422.622C85.059 422.622 96.0342 414.275 116.887 397.581C138.838 379.602 152.558 367.402 158.045 360.982C164.63 354.561 172.313 342.361 181.093 324.382C189.873 306.404 197.556 289.71 204.141 274.3C208.532 260.174 206.885 247.973 199.203 237.7C190.422 226.143 183.288 220.364 177.801 220.364C173.41 220.364 168.472 221.648 162.984 224.217C157.496 226.785 153.106 231.922 149.814 239.627C146.521 247.332 140.484 267.879 131.704 301.267L118.534 349.424L116.887 351.35L115.241 355.203V360.982H113.595V362.908H111.949V355.203L113.595 349.424L115.241 343.645V337.866H113.595V339.793H111.949V341.719L110.302 343.645L108.656 345.571V347.498H107.01V349.424H105.363L98.7781 360.982C93.2905 369.971 90.5466 374.465 90.5466 374.465H88.9003V376.392H87.254V378.318H80.6688L79.0225 380.244L77.3762 382.171H74.0836V380.244H75.7299V376.392H77.3762V374.465H79.0225V370.613L80.6688 368.687C81.7663 367.402 87.254 355.845 97.1318 334.014C107.01 312.183 113.046 297.415 115.241 289.71L118.534 280.078V272.373H116.887V270.447H113.595V272.373H111.949V276.226H110.302V278.152H108.656V282.005L79.0225 343.645C59.2669 384.738 48.291 407.212 46.0965 411.065L42.8039 416.843V418.77H41.1576V420.696H39.5113V424.548H37.865V426.475H36.2186V430.327H34.5723V432.253L26.3408 439.959L16.463 451.516H14.8167V453.442H13.1704V455.369H11.5241V457.295H9.87781V459.221H8.23151L6.58521 461.147L4.93891 463.074H3.2926L1.6463 465H0V461.147H3.2926V457.295L4.93891 455.369L6.58521 453.442V451.516H8.23151V449.59C9.32905 449.59 13.1704 443.811 19.7556 432.253C26.3408 419.412 34.5723 401.433 44.4502 378.318L59.2669 345.571L60.9132 343.645L62.5595 341.719V337.866H64.2058V335.94H65.8521V334.014C65.8521 332.73 73.5349 314.11 88.9003 278.152C104.266 242.194 113.595 221.649 116.887 216.512C121.278 211.375 125.119 208.806 128.412 208.806C132.802 208.806 136.643 205.596 139.936 199.175C143.228 194.038 148.167 185.691 154.752 174.134C161.338 162.576 165.728 155.513 167.923 152.945L172.862 151.018H176.154L181.093 152.945C183.288 155.513 188.776 163.218 197.556 176.06C204.141 188.902 208.532 197.249 210.727 201.101C212.922 203.67 214.568 204.954 215.666 204.954H217.312V206.88L218.958 208.806L220.604 210.733V212.659H227.19V206.88L238.714 177.986C246.397 158.724 252.433 145.881 256.823 139.461C262.311 134.324 267.799 128.545 273.286 122.124C279.871 115.704 288.652 103.504 299.627 85.5253C310.602 67.5469 317.188 57.2728 319.383 54.7051C322.675 52.1368 327.065 49.5683 332.553 47C338.041 47 344.626 50.2105 352.309 56.6313C358.894 63.0522 366.577 70.1152 375.357 77.8203C381.942 86.8096 389.076 97.0829 396.759 108.641C404.442 121.482 412.124 131.756 419.807 139.461C428.587 147.166 441.757 157.439 459.318 170.281C476.879 183.123 489.5 192.111 497.183 197.249C503.768 204.954 507.61 208.806 508.707 208.806C509.805 208.806 510.354 209.449 510.354 210.733Z" fill="#D7D4D3"/>
<path d="M295.713 366.049C295.644 367.393 295.61 368.738 295.61 370.082C295.61 371.427 295.576 372.748 295.507 374.047C295.462 374.571 295.371 375.107 295.234 375.653C295.12 376.2 295.063 376.736 295.063 377.26C295.063 377.693 295.097 378.103 295.166 378.49C295.234 378.855 295.268 379.22 295.268 379.584C295.268 379.994 295.188 380.393 295.029 380.78C294.892 381.145 294.767 381.555 294.653 382.011C294.562 382.489 294.505 382.991 294.482 383.515C294.459 384.039 294.437 384.563 294.414 385.087C294.391 385.611 294.368 386.112 294.345 386.591C294.323 387.069 294.266 387.502 294.174 387.89C294.106 388.163 293.947 388.471 293.696 388.813C293.468 389.132 293.206 389.462 292.91 389.804C292.614 390.146 292.317 390.487 292.021 390.829C291.748 391.148 291.531 391.456 291.372 391.752C291.235 392.003 291.121 392.276 291.03 392.572C290.939 392.869 290.859 393.165 290.791 393.461C290.722 393.757 290.654 394.042 290.586 394.316C290.517 394.589 290.426 394.805 290.312 394.965C290.13 395.238 289.845 395.489 289.458 395.717C289.093 395.945 288.683 396.138 288.227 396.298C287.794 396.48 287.339 396.64 286.86 396.776C286.404 396.913 285.971 397.039 285.561 397.152C284.718 397.38 283.943 397.608 283.237 397.836C282.531 398.064 281.836 398.269 281.152 398.451C280.468 398.656 279.773 398.816 279.067 398.93C278.383 399.044 277.632 399.101 276.811 399.101C275.923 399.101 275.022 399.044 274.111 398.93C273.2 398.816 272.322 398.668 271.479 398.485C270.636 398.303 269.839 398.075 269.087 397.802C268.357 397.551 267.708 397.266 267.138 396.947C266.888 396.788 266.591 396.674 266.25 396.606C265.908 396.537 265.646 396.435 265.464 396.298C265.213 396.116 264.939 395.854 264.643 395.512C264.37 395.147 264.062 394.828 263.72 394.555C262.946 393.985 262.194 393.415 261.465 392.846C260.735 392.253 260.109 391.467 259.585 390.487C259.402 390.146 259.3 389.735 259.277 389.257C259.254 388.778 259.152 388.323 258.969 387.89C258.81 387.502 258.605 387.149 258.354 386.83C258.126 386.488 257.978 386.192 257.91 385.942C257.819 385.6 257.75 385.224 257.705 384.814C257.659 384.403 257.614 383.982 257.568 383.549C257.522 383.093 257.465 382.649 257.397 382.216C257.352 381.76 257.283 381.35 257.192 380.985C257.055 380.325 256.873 379.607 256.645 378.832C256.417 378.057 256.303 377.374 256.303 376.781C256.303 376.394 256.383 376.098 256.543 375.893C256.702 375.665 256.896 375.471 257.124 375.312C257.352 375.129 257.591 374.947 257.841 374.765C258.115 374.582 258.343 374.343 258.525 374.047C258.73 373.728 258.878 373.398 258.969 373.056C259.061 372.714 259.152 372.372 259.243 372.03C259.357 371.689 259.482 371.37 259.619 371.073C259.756 370.777 259.972 370.526 260.268 370.321C260.519 370.162 260.792 370.048 261.089 369.98C261.385 369.911 261.681 369.877 261.977 369.877C262.296 369.854 262.615 369.843 262.934 369.843C263.276 369.82 263.606 369.775 263.925 369.706C264.427 369.592 264.826 369.456 265.122 369.296C265.441 369.137 265.76 369.057 266.079 369.057C266.717 369.057 267.286 369.182 267.788 369.433C268.289 369.683 268.802 369.911 269.326 370.116C269.964 370.39 270.522 370.675 271.001 370.971C271.502 371.244 271.946 371.563 272.334 371.928C272.744 372.292 273.12 372.714 273.462 373.193C273.803 373.648 274.145 374.207 274.487 374.867C274.76 375.391 274.954 375.824 275.068 376.166C275.182 376.485 275.25 376.804 275.273 377.123C275.319 377.419 275.341 377.773 275.341 378.183C275.341 378.593 275.364 379.151 275.41 379.858C275.41 380.427 275.478 380.997 275.615 381.567C275.752 382.113 275.82 382.683 275.82 383.276C275.82 383.8 275.809 384.346 275.786 384.916C275.763 385.463 275.752 386.01 275.752 386.557C275.752 387.377 275.797 388.186 275.888 388.984C275.979 389.758 276.162 390.453 276.435 391.068C276.709 391.684 277.096 392.185 277.597 392.572C278.121 392.96 278.816 393.153 279.682 393.153C280.115 393.153 280.491 393.005 280.81 392.709C281.129 392.413 281.403 392.037 281.631 391.581C281.858 391.125 282.052 390.624 282.212 390.077C282.394 389.508 282.565 388.961 282.724 388.437C282.884 387.89 283.043 387.4 283.203 386.967C283.385 386.511 283.59 386.169 283.818 385.942C283.955 385.805 284.023 385.497 284.023 385.019C284.023 384.312 283.978 383.674 283.886 383.105C283.795 382.535 283.75 381.965 283.75 381.396C283.75 380.051 283.841 378.695 284.023 377.328C284.205 375.938 284.297 374.537 284.297 373.124C284.297 372.418 284.24 371.78 284.126 371.21C284.012 370.618 283.886 370.048 283.75 369.501C283.636 368.931 283.522 368.339 283.408 367.724C283.294 367.086 283.237 366.368 283.237 365.57V363.246C283.237 362.836 283.18 362.312 283.066 361.674C282.952 361.013 282.827 360.284 282.69 359.486C282.576 358.689 282.462 357.834 282.348 356.923C282.234 356.012 282.177 355.111 282.177 354.223C282.177 353.334 282.28 352.639 282.485 352.138C282.713 351.637 282.998 351.261 283.34 351.01C283.681 350.759 284.069 350.588 284.502 350.497C284.935 350.406 285.356 350.326 285.766 350.258C286.268 350.167 286.792 350.087 287.339 350.019C287.908 349.928 288.455 349.882 288.979 349.882C289.503 349.882 289.913 349.95 290.21 350.087C290.529 350.201 290.802 350.36 291.03 350.566C291.281 350.748 291.52 350.964 291.748 351.215C291.998 351.466 292.317 351.728 292.705 352.001C293.229 352.343 293.73 352.582 294.209 352.719C294.71 352.833 295.063 353.015 295.268 353.266C295.633 353.744 295.883 354.405 296.02 355.248C296.18 356.091 296.259 357.014 296.259 358.017C296.259 359.429 296.18 360.865 296.02 362.323C295.883 363.759 295.781 365.001 295.713 366.049ZM335.737 383.139C335.783 383.344 335.817 383.572 335.84 383.822C335.862 384.05 335.874 384.29 335.874 384.54C335.874 385.133 335.817 385.748 335.703 386.386C335.589 387.001 335.441 387.616 335.258 388.232C335.099 388.847 334.917 389.439 334.712 390.009C334.529 390.556 334.358 391.068 334.199 391.547C333.88 392.481 333.641 393.188 333.481 393.666C333.322 394.145 333.162 394.498 333.003 394.726C332.843 394.931 332.638 395.045 332.387 395.068C332.159 395.09 331.806 395.102 331.328 395.102C330.986 395.102 330.542 395.022 329.995 394.862C329.448 394.68 328.89 394.418 328.32 394.076C327.75 393.712 327.215 393.267 326.714 392.743C326.235 392.219 325.905 391.604 325.722 390.898C325.722 390.761 325.768 390.533 325.859 390.214C325.95 389.895 325.996 389.542 325.996 389.154C325.973 388.904 325.927 388.539 325.859 388.061C325.813 387.582 325.745 387.058 325.654 386.488C325.563 385.896 325.46 385.304 325.346 384.711C325.255 384.096 325.141 383.538 325.005 383.036C324.868 382.535 324.72 382.125 324.56 381.806C324.423 381.487 324.275 381.327 324.116 381.327C323.523 381.327 323.09 381.418 322.817 381.601C322.566 381.76 322.35 381.943 322.168 382.148C321.985 382.33 321.78 382.512 321.552 382.694C321.347 382.854 321.006 382.934 320.527 382.934C320.071 382.934 319.57 382.888 319.023 382.797C318.476 382.683 317.861 382.569 317.177 382.455C316.517 382.318 315.787 382.205 314.99 382.113C314.192 381.999 313.315 381.943 312.358 381.943C311.857 381.943 311.401 381.965 310.991 382.011C310.581 382.034 310.307 382.102 310.171 382.216C309.92 382.421 309.738 382.82 309.624 383.412C309.51 384.005 309.419 384.665 309.35 385.395C309.282 386.101 309.225 386.807 309.179 387.514C309.134 388.197 309.043 388.744 308.906 389.154C308.86 389.223 308.769 389.359 308.632 389.565C308.496 389.747 308.336 389.975 308.154 390.248C307.972 390.499 307.789 390.784 307.607 391.103C307.425 391.399 307.277 391.684 307.163 391.957C306.889 392.572 306.65 393.279 306.445 394.076C306.263 394.851 306.035 395.58 305.761 396.264C305.511 396.97 305.192 397.563 304.804 398.041C304.417 398.52 303.893 398.759 303.232 398.759C302.799 398.759 302.389 398.656 302.002 398.451C301.637 398.246 301.307 398.007 301.01 397.734C300.737 397.483 300.509 397.232 300.327 396.982C300.145 396.754 300.042 396.594 300.019 396.503C299.746 396.025 299.472 395.637 299.199 395.341C298.948 395.022 298.709 394.737 298.481 394.486C298.253 394.236 298.071 393.974 297.934 393.7C297.798 393.404 297.729 393.04 297.729 392.607C297.729 392.447 297.741 392.231 297.763 391.957C297.763 391.684 297.786 391.399 297.832 391.103C297.854 390.806 297.889 390.522 297.934 390.248C297.98 389.975 298.025 389.747 298.071 389.565C298.117 389.451 298.196 389.337 298.31 389.223C298.447 389.086 298.572 388.949 298.686 388.813C298.823 388.676 298.937 388.551 299.028 388.437C299.142 388.3 299.199 388.163 299.199 388.026C299.199 387.844 299.142 387.673 299.028 387.514C298.937 387.354 298.891 387.183 298.891 387.001C298.891 386.956 298.903 386.921 298.925 386.899C298.948 386.876 298.96 386.842 298.96 386.796C299.187 386.112 299.461 385.452 299.78 384.814C300.122 384.176 300.441 383.526 300.737 382.865C301.056 382.182 301.329 381.487 301.557 380.78C301.808 380.051 301.956 379.254 302.002 378.388C302.002 377.978 302.002 377.533 302.002 377.055C302.024 376.576 302.047 376.098 302.07 375.619C302.116 375.118 302.173 374.639 302.241 374.184C302.332 373.705 302.457 373.284 302.617 372.919C302.64 372.851 302.742 372.737 302.924 372.577C303.13 372.418 303.346 372.213 303.574 371.962C303.802 371.689 303.995 371.37 304.155 371.005C304.337 370.618 304.428 370.185 304.428 369.706C304.428 369.456 304.406 369.193 304.36 368.92C304.314 368.647 304.292 368.373 304.292 368.1C304.292 367.781 304.337 367.519 304.428 367.314C304.542 367.086 304.668 366.881 304.804 366.698C304.964 366.493 305.112 366.288 305.249 366.083C305.408 365.878 305.534 365.639 305.625 365.365C305.807 364.887 305.909 364.386 305.932 363.861C305.955 363.315 305.966 362.779 305.966 362.255C305.966 361.708 305.978 361.173 306.001 360.649C306.046 360.124 306.16 359.623 306.342 359.145C306.388 358.94 306.491 358.769 306.65 358.632C306.81 358.472 306.969 358.324 307.129 358.188C307.311 358.028 307.47 357.857 307.607 357.675C307.744 357.493 307.812 357.276 307.812 357.026C307.812 356.843 307.789 356.661 307.744 356.479C307.721 356.274 307.71 356.057 307.71 355.829C307.71 355.305 307.824 354.77 308.051 354.223C308.302 353.676 308.576 353.14 308.872 352.616C309.168 352.069 309.43 351.545 309.658 351.044C309.909 350.52 310.034 350.041 310.034 349.609V348.925C310.034 348.492 310.205 348.048 310.547 347.592C310.911 347.136 311.401 346.726 312.016 346.361C312.632 345.974 313.338 345.666 314.135 345.439C314.956 345.188 315.81 345.063 316.699 345.063C317.2 345.063 317.645 345.131 318.032 345.268C318.442 345.382 318.852 345.518 319.262 345.678C319.673 345.837 320.117 345.997 320.595 346.156C321.074 346.293 321.632 346.373 322.27 346.396C322.635 346.396 323.011 346.361 323.398 346.293C323.808 346.202 324.218 346.111 324.629 346.02C325.039 345.906 325.449 345.815 325.859 345.746C326.269 345.655 326.668 345.609 327.055 345.609C327.26 345.609 327.522 345.678 327.841 345.815C328.183 345.929 328.525 346.088 328.867 346.293C329.231 346.498 329.573 346.737 329.892 347.011C330.234 347.284 330.519 347.569 330.747 347.865C331.157 348.389 331.43 349.05 331.567 349.848C331.727 350.645 331.84 351.5 331.909 352.411C332 353.323 332.103 354.234 332.216 355.146C332.33 356.057 332.547 356.877 332.866 357.607C332.98 357.903 333.117 358.176 333.276 358.427C333.436 358.655 333.584 358.905 333.72 359.179C333.88 359.452 334.005 359.771 334.096 360.136C334.21 360.478 334.267 360.911 334.267 361.435C334.267 362.073 334.233 362.722 334.165 363.383C334.096 364.021 334.062 364.636 334.062 365.229C334.062 365.707 334.119 366.106 334.233 366.425C334.37 366.744 334.507 367.029 334.643 367.279C334.78 367.507 334.905 367.735 335.019 367.963C335.156 368.191 335.224 368.464 335.224 368.783C335.224 369.216 335.156 369.706 335.019 370.253C334.882 370.8 334.814 371.335 334.814 371.859C334.814 372.361 334.894 372.817 335.053 373.227C335.213 373.637 335.27 374.047 335.224 374.457C335.201 374.89 335.122 375.323 334.985 375.756C334.848 376.189 334.7 376.61 334.541 377.021C334.381 377.431 334.233 377.841 334.096 378.251C333.96 378.661 333.891 379.06 333.891 379.447C333.891 379.766 333.971 380.074 334.131 380.37C334.29 380.666 334.472 380.963 334.677 381.259C334.882 381.555 335.088 381.863 335.293 382.182C335.498 382.478 335.646 382.797 335.737 383.139ZM322.509 374.252C322.646 374.047 322.715 373.785 322.715 373.466C322.715 373.147 322.658 372.782 322.544 372.372C322.43 371.962 322.304 371.575 322.168 371.21C322.054 370.823 321.94 370.481 321.826 370.185C321.712 369.888 321.655 369.683 321.655 369.569C321.655 369.342 321.689 369.114 321.757 368.886C321.826 368.658 321.86 368.419 321.86 368.168C321.86 367.576 321.735 366.972 321.484 366.357C321.233 365.741 320.949 365.183 320.63 364.682C320.333 364.158 320.048 363.713 319.775 363.349C319.502 362.961 319.331 362.699 319.262 362.563C319.103 362.198 318.989 361.833 318.921 361.469C318.875 361.082 318.807 360.717 318.715 360.375C318.647 360.033 318.545 359.737 318.408 359.486C318.271 359.236 318.043 359.042 317.724 358.905C317.269 360.273 316.779 361.617 316.255 362.939C315.753 364.26 315.252 365.605 314.751 366.972C314.272 368.316 313.816 369.706 313.383 371.142C312.973 372.554 312.632 374.036 312.358 375.585C313.156 375.471 313.976 375.403 314.819 375.38C315.662 375.334 316.562 375.243 317.519 375.107C317.656 375.084 317.986 375.038 318.51 374.97C319.034 374.901 319.581 374.822 320.151 374.731C320.743 374.639 321.268 374.548 321.723 374.457C322.202 374.366 322.464 374.298 322.509 374.252ZM376.342 378.593C376.342 378.775 376.354 378.957 376.377 379.14C376.399 379.299 376.411 379.47 376.411 379.652C376.411 380.632 376.331 381.658 376.172 382.729C376.012 383.777 375.932 384.848 375.932 385.942C375.932 386.329 375.944 386.75 375.966 387.206C375.989 387.639 376.001 388.083 376.001 388.539C376.001 389.109 375.955 389.679 375.864 390.248C375.796 390.818 375.647 391.342 375.42 391.82C375.192 392.276 374.85 392.652 374.394 392.948C373.961 393.222 373.392 393.359 372.685 393.359C372.275 393.359 371.899 393.302 371.557 393.188C371.238 393.051 370.908 392.914 370.566 392.777C370.247 392.618 369.905 392.481 369.541 392.367C369.176 392.231 368.755 392.162 368.276 392.162C367.889 392.162 367.422 392.185 366.875 392.231C366.328 392.276 365.77 392.299 365.2 392.299C364.425 392.299 363.867 392.242 363.525 392.128C363.183 392.014 362.944 391.843 362.807 391.615C362.671 391.387 362.568 391.103 362.5 390.761C362.454 390.419 362.329 390.02 362.124 389.565C362.01 389.382 361.839 389.2 361.611 389.018C361.383 388.835 361.178 388.608 360.996 388.334C360.813 388.038 360.665 387.764 360.551 387.514C360.46 387.263 360.358 387.035 360.244 386.83C360.153 386.602 360.027 386.386 359.868 386.181C359.731 385.976 359.526 385.759 359.253 385.531C358.979 385.326 358.751 385.155 358.569 385.019C358.409 384.882 358.261 384.745 358.125 384.609C357.988 384.472 357.84 384.312 357.68 384.13C357.544 383.948 357.373 383.686 357.168 383.344C356.803 382.865 356.473 382.341 356.176 381.772C355.88 381.202 355.55 380.632 355.185 380.063C354.798 379.493 354.342 379.003 353.818 378.593C353.294 378.16 352.895 377.716 352.622 377.26C352.394 376.918 352.177 376.542 351.972 376.132C351.79 375.699 351.608 375.255 351.425 374.799C351.266 374.32 351.106 373.853 350.947 373.398C350.787 372.919 350.617 372.475 350.434 372.065C350.503 373.865 350.525 375.676 350.503 377.499C350.48 379.322 350.525 381.134 350.639 382.934C350.685 383.708 350.765 384.426 350.879 385.087C351.015 385.725 351.084 386.431 351.084 387.206C351.084 387.867 350.97 388.642 350.742 389.53C350.514 390.396 350.343 391.342 350.229 392.367C350.138 393.142 350.07 393.803 350.024 394.35C350.001 394.897 349.899 395.352 349.716 395.717C349.534 396.059 349.238 396.309 348.828 396.469C348.418 396.628 347.791 396.708 346.948 396.708C346.697 396.708 346.412 396.685 346.093 396.64C345.774 396.617 345.455 396.571 345.136 396.503C344.84 396.435 344.555 396.366 344.282 396.298C344.031 396.23 343.849 396.161 343.735 396.093C343.621 396.025 343.496 395.819 343.359 395.478C343.222 395.113 343.063 394.805 342.881 394.555C342.675 394.327 342.493 394.122 342.334 393.94C342.174 393.757 342.037 393.552 341.923 393.324C341.81 393.096 341.718 392.823 341.65 392.504C341.582 392.162 341.548 391.729 341.548 391.205C341.548 390.066 341.616 388.892 341.753 387.685C341.889 386.454 341.958 385.292 341.958 384.198C341.958 383.743 341.878 383.173 341.718 382.489C341.559 381.806 341.479 381.111 341.479 380.404C341.479 379.493 341.491 378.604 341.513 377.738C341.536 376.85 341.548 375.972 341.548 375.107C341.548 373.534 341.468 371.996 341.308 370.492C341.149 368.966 341.069 367.462 341.069 365.981C341.069 365.411 341.126 364.887 341.24 364.408C341.377 363.93 341.513 363.451 341.65 362.973C341.81 362.471 341.946 361.936 342.06 361.366C342.197 360.797 342.265 360.124 342.265 359.35C342.265 359.054 342.243 358.757 342.197 358.461C342.174 358.165 342.163 357.88 342.163 357.607C342.163 356.125 342.584 355.02 343.427 354.291C344.293 353.562 345.444 353.197 346.88 353.197C347.518 353.197 348.235 353.266 349.033 353.402C349.83 353.539 350.594 353.71 351.323 353.915C352.075 354.12 352.736 354.359 353.305 354.633C353.898 354.884 354.297 355.146 354.502 355.419C354.707 355.67 354.843 356.034 354.912 356.513C355.003 356.991 355.174 357.424 355.424 357.812C355.698 358.267 356.04 358.678 356.45 359.042C356.883 359.384 357.19 359.692 357.373 359.965C357.487 360.147 357.566 360.421 357.612 360.785C357.658 361.127 357.783 361.514 357.988 361.947C358.147 362.266 358.398 362.608 358.74 362.973C359.104 363.337 359.446 363.713 359.765 364.101C360.039 364.443 360.289 364.818 360.517 365.229C360.745 365.639 360.984 365.992 361.235 366.288C361.85 366.972 362.488 367.587 363.149 368.134C363.833 368.681 364.425 369.273 364.926 369.911C365.314 370.435 365.656 370.982 365.952 371.552C366.248 372.122 366.51 372.646 366.738 373.124C366.989 373.603 367.205 374.001 367.387 374.32C367.57 374.639 367.752 374.799 367.934 374.799C368.117 374.799 368.23 374.605 368.276 374.218C368.322 373.808 368.344 373.306 368.344 372.714C368.344 372.281 368.333 371.814 368.31 371.313C368.287 370.811 368.265 370.333 368.242 369.877C368.219 369.399 368.196 368.977 368.173 368.612C368.151 368.225 368.139 367.94 368.139 367.758C368.139 367.393 368.208 367.006 368.344 366.596C368.504 366.186 368.584 365.684 368.584 365.092C368.584 364.158 368.527 363.189 368.413 362.187C368.322 361.184 368.276 360.17 368.276 359.145C368.276 358.438 368.333 357.766 368.447 357.128C368.584 356.49 368.72 355.886 368.857 355.317C369.017 354.724 369.153 354.154 369.267 353.608C369.404 353.038 369.472 352.48 369.472 351.933C369.472 351.363 369.427 350.85 369.336 350.395C369.267 349.939 369.187 349.517 369.096 349.13C369.005 348.72 368.914 348.344 368.823 348.002C368.755 347.637 368.72 347.284 368.72 346.943C368.72 346.578 368.789 346.225 368.925 345.883C369.062 345.541 369.244 345.234 369.472 344.96C369.723 344.687 370.019 344.47 370.361 344.311C370.726 344.151 371.136 344.071 371.591 344.071C371.683 344.071 371.933 344.106 372.343 344.174C372.776 344.22 373.221 344.39 373.676 344.687C374.155 344.96 374.576 345.393 374.941 345.985C375.306 346.578 375.488 347.41 375.488 348.481C375.488 348.936 375.454 349.403 375.385 349.882C375.317 350.36 375.283 350.896 375.283 351.488C375.283 352.582 375.317 353.665 375.385 354.735C375.477 355.784 375.568 356.809 375.659 357.812C375.773 358.791 375.864 359.748 375.932 360.683C376.023 361.594 376.069 362.449 376.069 363.246C376.069 364.613 375.989 365.946 375.83 367.245C375.693 368.521 375.625 369.615 375.625 370.526C375.625 371.871 375.716 373.249 375.898 374.662C376.08 376.075 376.229 377.385 376.342 378.593ZM415 363.315C414.84 365.365 414.669 367.416 414.487 369.467C414.327 371.518 414.214 373.443 414.145 375.243C414.1 375.836 414.008 376.348 413.872 376.781C413.735 377.192 413.667 377.659 413.667 378.183C413.667 378.593 413.689 379.014 413.735 379.447C413.781 379.858 413.803 380.29 413.803 380.746C413.803 382.022 413.678 383.15 413.427 384.13C413.2 385.087 412.903 385.953 412.539 386.728C412.174 387.502 411.764 388.197 411.308 388.813C410.853 389.428 410.42 390.009 410.009 390.556C409.668 391.012 409.326 391.467 408.984 391.923C408.642 392.379 408.187 392.789 407.617 393.153C407.503 393.267 407.298 393.347 407.002 393.393C406.728 393.415 406.443 393.495 406.147 393.632C405.896 393.746 405.703 393.905 405.566 394.11C405.429 394.293 405.258 394.418 405.053 394.486C404.734 394.6 404.176 394.737 403.379 394.897C402.581 395.033 401.749 395.193 400.883 395.375C400.018 395.535 399.231 395.728 398.525 395.956C397.819 396.161 397.397 396.389 397.26 396.64C397.397 397.05 397.488 397.483 397.534 397.939C397.602 398.394 397.693 398.816 397.807 399.203C397.944 399.591 398.138 399.91 398.388 400.16C398.662 400.434 399.061 400.57 399.585 400.57C400.018 400.57 400.462 400.502 400.918 400.365C401.396 400.251 401.84 400.115 402.251 399.955C402.661 399.796 403.014 399.648 403.31 399.511C403.629 399.374 403.857 399.283 403.994 399.237C404.336 399.146 404.757 399.021 405.258 398.861C405.76 398.725 406.261 398.588 406.762 398.451C407.264 398.315 407.742 398.201 408.198 398.109C408.676 398.018 409.052 397.973 409.326 397.973C409.804 397.973 410.237 398.121 410.625 398.417C411.012 398.736 411.331 399.169 411.582 399.716C411.855 400.263 412.06 400.901 412.197 401.63C412.334 402.382 412.402 403.191 412.402 404.057C412.402 405.082 412.288 406.028 412.06 406.894C411.832 407.782 411.456 408.409 410.932 408.774C410.796 408.865 410.454 408.99 409.907 409.15C409.383 409.309 408.813 409.469 408.198 409.628C407.605 409.788 407.047 409.924 406.523 410.038C405.999 410.175 405.669 410.243 405.532 410.243C405.031 410.243 404.393 410.129 403.618 409.901C402.866 409.696 402.057 409.594 401.191 409.594C400.462 409.594 399.801 409.617 399.209 409.662C398.639 409.708 398.115 409.731 397.636 409.731C396.816 409.731 396.019 409.548 395.244 409.184C394.492 408.842 393.82 408.341 393.227 407.68C392.635 407.019 392.156 406.221 391.792 405.287C391.427 404.376 391.245 403.339 391.245 402.177C391.245 401.903 391.302 401.562 391.416 401.151C391.53 400.741 391.644 400.297 391.757 399.818C391.894 399.34 392.02 398.85 392.133 398.349C392.247 397.87 392.304 397.426 392.304 397.016C392.304 396.401 392.042 395.968 391.518 395.717C390.994 395.443 390.356 395.25 389.604 395.136C388.875 395.022 388.112 394.942 387.314 394.897C386.539 394.828 385.89 394.692 385.366 394.486C384.819 394.281 384.352 393.985 383.965 393.598C383.6 393.21 383.258 392.766 382.939 392.265C382.643 391.763 382.358 391.205 382.085 390.59C381.834 389.975 381.549 389.337 381.23 388.676C381.025 388.22 380.797 387.662 380.547 387.001C380.319 386.34 380.205 385.657 380.205 384.95C380.205 384.472 380.262 383.959 380.376 383.412C380.49 382.865 380.626 382.307 380.786 381.737C380.968 381.145 381.139 380.541 381.298 379.926C381.481 379.311 381.629 378.684 381.743 378.046C381.925 376.816 382.05 375.54 382.119 374.218C382.21 372.873 382.358 371.62 382.563 370.458C382.632 370.185 382.734 369.911 382.871 369.638C383.03 369.342 383.144 369.034 383.213 368.715C383.395 367.917 383.52 367.052 383.589 366.117C383.657 365.183 383.725 364.272 383.794 363.383C383.862 362.471 383.953 361.617 384.067 360.819C384.204 359.999 384.432 359.316 384.751 358.769C384.865 358.586 385.035 358.427 385.263 358.29C385.491 358.153 385.742 358.028 386.015 357.914C386.312 357.777 386.608 357.629 386.904 357.47C387.2 357.31 387.485 357.117 387.758 356.889C387.941 356.729 388.089 356.547 388.203 356.342C388.317 356.114 388.408 355.886 388.476 355.658C388.567 355.43 388.659 355.214 388.75 355.009C388.841 354.804 388.955 354.633 389.091 354.496C389.205 354.359 389.399 354.246 389.673 354.154C389.969 354.063 390.197 353.949 390.356 353.813C390.607 353.608 390.766 353.414 390.835 353.232C390.926 353.026 391.062 352.867 391.245 352.753C391.769 352.457 392.464 352.206 393.33 352.001C394.218 351.796 395.084 351.534 395.927 351.215C396.748 350.896 397.5 350.52 398.183 350.087C398.89 349.654 399.516 349.312 400.063 349.062C400.359 348.993 400.724 348.97 401.157 348.993C401.59 349.016 402.023 348.97 402.456 348.857C402.729 348.788 402.968 348.72 403.173 348.651C403.401 348.583 403.629 348.526 403.857 348.481C404.085 348.412 404.336 348.355 404.609 348.31C404.905 348.264 405.258 348.23 405.669 348.207C405.714 348.207 405.771 348.173 405.84 348.105C405.931 348.036 406.033 348.002 406.147 348.002C406.443 348.002 406.797 348.07 407.207 348.207C407.64 348.321 408.061 348.469 408.471 348.651C408.882 348.834 409.257 349.027 409.599 349.233C409.964 349.415 410.237 349.586 410.42 349.745C410.625 349.905 410.807 350.121 410.966 350.395C411.126 350.645 411.285 350.919 411.445 351.215C411.627 351.511 411.81 351.819 411.992 352.138C412.174 352.434 412.379 352.707 412.607 352.958C412.994 353.391 413.416 353.733 413.872 353.984C414.327 354.234 414.624 354.485 414.76 354.735C414.943 355.054 415.068 355.522 415.136 356.137C415.228 356.752 415.273 357.424 415.273 358.153C415.273 359.019 415.239 359.931 415.171 360.888C415.125 361.822 415.068 362.631 415 363.315ZM403.994 374.799C403.948 374.412 403.868 374.047 403.755 373.705C403.641 373.363 403.527 373.01 403.413 372.646C403.299 372.281 403.185 371.894 403.071 371.484C402.98 371.051 402.934 370.549 402.934 369.98C402.934 369.205 402.843 368.555 402.661 368.031C402.479 367.507 402.262 367.052 402.011 366.664C401.761 366.277 401.51 365.912 401.259 365.57C401.009 365.229 400.826 364.853 400.713 364.443C400.553 363.918 400.451 363.246 400.405 362.426C400.359 361.606 400.291 360.808 400.2 360.033C400.109 359.236 399.949 358.564 399.721 358.017C399.516 357.447 399.163 357.162 398.662 357.162C397.431 357.162 396.44 357.424 395.688 357.948C394.959 358.472 394.389 359.179 393.979 360.068C393.592 360.956 393.318 361.993 393.159 363.178C392.999 364.34 392.874 365.57 392.783 366.869C392.715 368.168 392.646 369.501 392.578 370.868C392.509 372.235 392.35 373.546 392.099 374.799C392.054 374.958 391.974 375.175 391.86 375.448C391.769 375.722 391.655 376.007 391.518 376.303C391.404 376.599 391.29 376.884 391.176 377.157C391.062 377.431 390.994 377.647 390.971 377.807C390.926 378.012 390.857 378.388 390.766 378.935C390.675 379.482 390.584 380.131 390.493 380.883C390.402 381.612 390.311 382.421 390.219 383.31C390.151 384.176 390.117 385.03 390.117 385.873C390.117 386.42 390.174 386.842 390.288 387.138C390.402 387.411 390.561 387.651 390.766 387.856C390.971 388.038 391.199 388.197 391.45 388.334C391.723 388.471 392.008 388.653 392.304 388.881C392.692 389.2 393.079 389.496 393.466 389.77C393.877 390.02 394.31 390.146 394.765 390.146C395.198 390.146 395.722 390.066 396.338 389.906C396.976 389.747 397.602 389.553 398.217 389.325C398.833 389.097 399.391 388.858 399.892 388.608C400.394 388.357 400.735 388.14 400.918 387.958C401.191 387.707 401.408 387.275 401.567 386.659C401.727 386.021 402.023 385.315 402.456 384.54C402.615 384.198 402.786 383.914 402.968 383.686C403.151 383.458 403.322 383.23 403.481 383.002C403.641 382.774 403.766 382.524 403.857 382.25C403.948 381.954 403.994 381.578 403.994 381.122C403.994 380.598 403.96 380.028 403.891 379.413C403.823 378.798 403.789 378.194 403.789 377.602C403.789 377.192 403.823 376.759 403.891 376.303C403.96 375.847 403.994 375.448 403.994 375.107V374.799ZM449.624 375.243V375.653C449.624 376.291 449.59 376.986 449.521 377.738C449.453 378.468 449.419 379.151 449.419 379.789C449.419 380.177 449.43 380.575 449.453 380.985C449.476 381.373 449.487 381.76 449.487 382.148C449.487 382.626 449.43 383.07 449.316 383.481C449.202 383.868 449.065 384.255 448.906 384.643C448.746 385.007 448.564 385.395 448.359 385.805C448.177 386.192 448.017 386.637 447.881 387.138C447.767 387.548 447.664 387.97 447.573 388.402C447.505 388.813 447.436 389.223 447.368 389.633C447.299 390.043 447.22 390.43 447.129 390.795C447.06 391.137 446.958 391.433 446.821 391.684C446.456 392.413 445.921 393.085 445.215 393.7C444.508 394.316 443.779 394.851 443.027 395.307C442.298 395.74 441.637 396.082 441.045 396.332C440.452 396.583 440.076 396.708 439.917 396.708C439.415 396.708 438.914 396.663 438.413 396.571C437.934 396.48 437.433 396.435 436.909 396.435C435.952 396.435 434.972 396.514 433.969 396.674C432.99 396.856 432.01 396.947 431.03 396.947C430.415 396.947 429.868 396.89 429.389 396.776C428.934 396.685 428.432 396.503 427.885 396.23C427.339 395.956 426.701 395.58 425.971 395.102C425.265 394.6 424.354 393.951 423.237 393.153C422.69 392.766 422.212 392.436 421.801 392.162C421.414 391.866 421.072 391.501 420.776 391.068C420.48 390.636 420.218 390.066 419.99 389.359C419.762 388.653 419.546 387.696 419.34 386.488C419.34 386.374 419.329 386.272 419.306 386.181C419.284 386.09 419.272 385.987 419.272 385.873C419.272 385.509 419.295 385.155 419.34 384.814C419.386 384.449 419.409 384.073 419.409 383.686C419.409 383.298 419.352 382.945 419.238 382.626C419.124 382.284 418.999 381.954 418.862 381.635C418.725 381.316 418.6 381.008 418.486 380.712C418.372 380.416 418.304 380.108 418.281 379.789C418.281 379.607 418.349 379.333 418.486 378.969C418.623 378.604 418.691 378.24 418.691 377.875V376.713C418.691 376.417 418.737 376.143 418.828 375.893C418.919 375.642 419.021 375.403 419.135 375.175C419.272 374.924 419.386 374.674 419.477 374.423C419.568 374.15 419.614 373.853 419.614 373.534C419.614 372.805 419.523 372.076 419.34 371.347C419.181 370.595 419.101 369.854 419.101 369.125C419.101 368.51 419.261 367.849 419.58 367.143C419.899 366.414 420.184 365.582 420.434 364.648C420.617 363.987 420.753 363.28 420.844 362.528C420.958 361.754 421.106 361.013 421.289 360.307C421.539 359.327 421.813 358.37 422.109 357.436C422.405 356.501 422.713 355.453 423.032 354.291C423.146 353.835 423.283 353.414 423.442 353.026C423.602 352.616 423.681 352.252 423.681 351.933C423.681 351.682 423.659 351.443 423.613 351.215C423.567 350.964 423.545 350.736 423.545 350.531C423.545 350.167 423.727 349.825 424.091 349.506C424.456 349.164 424.969 348.993 425.63 348.993C426.268 348.993 426.871 349.119 427.441 349.369C428.034 349.597 428.546 349.893 428.979 350.258C429.435 350.623 429.788 351.033 430.039 351.488C430.312 351.921 430.449 352.343 430.449 352.753C430.449 353.118 430.415 353.539 430.346 354.018C430.278 354.473 430.187 354.929 430.073 355.385C429.982 355.841 429.879 356.285 429.765 356.718C429.674 357.128 429.606 357.47 429.56 357.743C429.31 359.065 429.059 360.421 428.808 361.811C428.58 363.201 428.364 364.613 428.159 366.049C427.977 367.462 427.828 368.909 427.715 370.39C427.601 371.848 427.555 373.318 427.578 374.799C427.578 376.303 427.646 377.818 427.783 379.345C427.828 379.709 427.851 380.12 427.851 380.575C427.851 381.031 427.851 381.487 427.851 381.943C427.874 382.398 427.908 382.82 427.954 383.207C427.999 383.595 428.09 383.902 428.227 384.13C428.318 384.29 428.546 384.472 428.911 384.677C429.298 384.882 429.765 385.087 430.312 385.292C430.859 385.474 431.44 385.634 432.055 385.771C432.671 385.885 433.263 385.942 433.833 385.942C434.653 385.942 435.245 385.782 435.61 385.463C435.997 385.144 436.259 384.722 436.396 384.198C436.533 383.651 436.59 383.036 436.567 382.353C436.544 381.646 436.556 380.929 436.601 380.199C436.647 379.333 436.749 378.49 436.909 377.67C437.091 376.85 437.159 376.109 437.114 375.448C437.068 374.605 436.92 373.671 436.67 372.646C436.419 371.597 436.259 370.526 436.191 369.433C436.191 369.045 436.225 368.658 436.294 368.271C436.362 367.86 436.396 367.473 436.396 367.109C436.396 366.812 436.373 366.448 436.328 366.015C436.305 365.582 436.271 365.115 436.225 364.613C436.18 364.089 436.134 363.554 436.089 363.007C436.066 362.437 436.054 361.868 436.054 361.298C436.054 359.862 436.214 358.7 436.533 357.812C436.875 356.923 437.558 356.479 438.584 356.479C438.925 356.479 439.301 356.501 439.712 356.547C440.122 356.593 440.532 356.638 440.942 356.684C441.329 356.684 441.774 356.65 442.275 356.581C442.776 356.513 443.266 356.479 443.745 356.479C444.041 356.479 444.394 356.558 444.804 356.718C445.215 356.877 445.613 357.117 446.001 357.436C446.411 357.755 446.775 358.176 447.094 358.7C447.436 359.224 447.698 359.84 447.881 360.546C448.017 361.161 448.097 361.833 448.12 362.563C448.143 363.292 448.211 363.987 448.325 364.648C448.462 365.422 448.61 366.197 448.769 366.972C448.929 367.747 449.008 368.464 449.008 369.125C449.008 369.558 448.997 369.991 448.974 370.424C448.951 370.834 448.94 371.244 448.94 371.654C448.94 372.384 449.043 373.01 449.248 373.534C449.453 374.036 449.578 374.605 449.624 375.243ZM490.127 387.206C490.058 387.411 489.944 387.594 489.785 387.753C489.625 387.913 489.523 388.106 489.477 388.334C489.386 388.63 489.329 388.938 489.306 389.257C489.284 389.553 489.238 389.849 489.17 390.146C489.124 390.442 489.044 390.727 488.93 391C488.816 391.274 488.634 391.524 488.383 391.752C488.11 392.003 487.723 392.208 487.221 392.367C486.72 392.527 486.173 392.675 485.581 392.812C485.011 392.948 484.43 393.085 483.838 393.222C483.268 393.359 482.767 393.518 482.334 393.7C481.992 393.86 481.661 394.088 481.342 394.384C481.023 394.657 480.693 394.954 480.351 395.273C480.009 395.569 479.645 395.854 479.257 396.127C478.893 396.401 478.471 396.594 477.993 396.708C477.651 396.822 477.218 396.902 476.694 396.947C476.17 397.016 475.68 397.084 475.224 397.152C474.769 397.244 474.222 397.335 473.584 397.426C472.968 397.54 472.296 397.642 471.567 397.734C470.861 397.847 470.12 397.939 469.345 398.007C468.593 398.075 467.864 398.109 467.158 398.109C466.429 398.109 465.848 398.053 465.415 397.939C465.005 397.847 464.651 397.722 464.355 397.563C464.059 397.403 463.774 397.221 463.501 397.016C463.227 396.833 462.885 396.663 462.475 396.503C461.837 396.298 461.188 396.161 460.527 396.093C459.866 396.025 459.205 395.922 458.545 395.785C457.884 395.649 457.223 395.432 456.562 395.136C455.901 394.84 455.252 394.361 454.614 393.7C454.546 393.632 454.477 393.518 454.409 393.359C454.34 393.176 454.272 392.983 454.204 392.777C454.135 392.572 454.067 392.379 453.999 392.196C453.93 392.014 453.862 391.866 453.794 391.752C453.566 391.433 453.304 391.171 453.007 390.966C452.734 390.738 452.472 390.522 452.221 390.317C451.993 390.089 451.8 389.838 451.64 389.565C451.481 389.291 451.401 388.949 451.401 388.539C451.401 388.243 451.504 387.935 451.709 387.616C451.914 387.275 452.164 386.967 452.461 386.693C452.757 386.42 453.076 386.192 453.418 386.01C453.759 385.828 454.067 385.736 454.34 385.736H454.853C455.149 385.736 455.389 385.657 455.571 385.497C455.776 385.338 455.936 385.144 456.049 384.916C456.163 384.688 456.243 384.438 456.289 384.164C456.357 383.891 456.391 383.64 456.391 383.412C456.391 382.934 456.346 382.387 456.255 381.772C456.186 381.156 456.152 380.45 456.152 379.652C456.152 379.265 456.163 378.878 456.186 378.49C456.232 378.08 456.255 377.693 456.255 377.328C456.255 376.759 456.175 376.28 456.015 375.893C455.879 375.505 455.787 375.095 455.742 374.662C455.628 373.614 455.537 372.463 455.468 371.21C455.423 369.957 455.4 368.658 455.4 367.314C455.4 366.698 455.423 366.06 455.468 365.4C455.514 364.739 455.56 364.089 455.605 363.451C455.651 362.813 455.696 362.209 455.742 361.64C455.787 361.047 455.81 360.535 455.81 360.102C455.81 359.828 455.628 359.612 455.263 359.452C454.922 359.293 454.546 359.088 454.135 358.837C453.725 358.586 453.338 358.245 452.973 357.812C452.632 357.356 452.461 356.695 452.461 355.829C452.461 354.918 452.78 354.075 453.418 353.3C454.078 352.525 454.876 351.853 455.81 351.283C456.744 350.691 457.736 350.235 458.784 349.916C459.832 349.574 460.755 349.403 461.552 349.403C462.92 349.403 464.344 349.517 465.825 349.745C467.306 349.973 468.798 350.087 470.302 350.087C470.599 350.087 470.94 350.053 471.328 349.984C471.715 349.893 472.148 349.802 472.627 349.711C473.128 349.62 473.675 349.54 474.267 349.472C474.86 349.381 475.52 349.335 476.25 349.335C476.705 349.335 477.07 349.392 477.343 349.506C477.617 349.62 477.868 349.768 478.095 349.95C478.346 350.11 478.585 350.304 478.813 350.531C479.064 350.736 479.383 350.942 479.77 351.147C480.021 351.283 480.328 351.386 480.693 351.454C481.058 351.523 481.377 351.637 481.65 351.796C481.969 351.933 482.254 352.092 482.505 352.275C482.755 352.434 482.983 352.548 483.188 352.616C483.963 352.89 484.658 353.072 485.273 353.163C485.911 353.254 486.447 353.402 486.88 353.608C487.312 353.79 487.643 354.097 487.871 354.53C488.099 354.941 488.213 355.59 488.213 356.479C488.213 357.732 488.064 358.689 487.768 359.35C487.495 360.011 487.073 360.5 486.504 360.819C485.934 361.116 485.228 361.309 484.384 361.401C483.541 361.492 482.562 361.594 481.445 361.708C480.442 361.822 479.451 361.913 478.471 361.982C477.514 362.05 476.478 362.084 475.361 362.084C474.017 362.084 472.524 362.004 470.883 361.845C469.243 361.663 467.602 361.571 465.962 361.571C465.529 361.571 465.175 361.583 464.902 361.606C464.629 361.628 464.412 361.708 464.253 361.845C464.116 361.982 464.013 362.198 463.945 362.494C463.899 362.79 463.877 363.212 463.877 363.759C463.877 364.146 463.888 364.545 463.911 364.955C463.956 365.365 464.002 365.753 464.048 366.117C464.093 366.482 464.139 366.79 464.184 367.04C464.253 367.291 464.31 367.45 464.355 367.519C464.56 367.747 464.959 367.929 465.551 368.066C466.144 368.179 466.793 368.271 467.5 368.339C468.206 368.385 468.901 368.419 469.585 368.442C470.291 368.442 470.861 368.442 471.294 368.442C471.818 368.442 472.285 368.385 472.695 368.271C473.128 368.157 473.527 368.031 473.891 367.895C474.279 367.735 474.632 367.598 474.951 367.484C475.293 367.371 475.634 367.314 475.976 367.314C476.341 367.314 476.614 367.348 476.797 367.416C477.002 367.484 477.161 367.576 477.275 367.69C477.389 367.781 477.469 367.883 477.514 367.997C477.583 368.088 477.674 368.168 477.788 368.236C478.061 368.419 478.278 368.578 478.437 368.715C478.597 368.852 478.722 369 478.813 369.159C478.904 369.319 478.961 369.524 478.984 369.775C479.03 370.002 479.052 370.31 479.052 370.697C479.052 371.996 478.961 372.999 478.779 373.705C478.597 374.412 478.221 374.947 477.651 375.312C477.104 375.653 476.318 375.881 475.293 375.995C474.29 376.086 472.957 376.155 471.294 376.2C470.678 376.223 470.177 376.257 469.79 376.303C469.402 376.326 469.106 376.394 468.901 376.508C468.696 376.599 468.548 376.736 468.457 376.918C468.388 377.1 468.354 377.351 468.354 377.67C468.354 378.741 468.343 379.641 468.32 380.37C468.32 381.077 468.411 381.658 468.593 382.113C468.776 382.546 469.106 382.865 469.585 383.07C470.063 383.253 470.792 383.344 471.772 383.344C472.524 383.344 473.299 383.31 474.096 383.241C474.894 383.173 475.691 383.093 476.489 383.002C477.286 382.888 478.061 382.763 478.813 382.626C479.588 382.489 480.317 382.353 481.001 382.216C481.57 382.102 482.094 381.954 482.573 381.772C483.051 381.589 483.507 381.418 483.94 381.259C484.396 381.077 484.852 380.929 485.307 380.815C485.763 380.678 486.242 380.609 486.743 380.609C487.973 380.609 488.908 380.963 489.546 381.669C490.206 382.375 490.537 383.401 490.537 384.745C490.537 385.133 490.503 385.543 490.434 385.976C490.366 386.409 490.263 386.819 490.127 387.206Z" fill="#D7D4D3"/>
</g>
<defs>
<clipPath id="clip0">
<rect width="512" height="418" fill="white" transform="translate(0 47)"/>
</clipPath>
</defs>
</svg>
